<svg width="82" height="82" viewBox="0 0 82 82" fill="none" xmlns="http://www.w3.org/2000/svg">
<rect width="82" height="82" fill="white"/>
<path d="M75.5152 49.7952C76.1273 51.0194 75.7872 52.4475 74.6991 53.3997L67.2862 59.6564C66.7421 60.1325 65.858 59.7924 65.858 59.1124L65.722 51.9035V51.8355L65.314 30.7529C65.722 31.161 66.1301 31.569 66.4701 32.1811L66.8101 32.7932L75.5152 49.7952Z" fill="url(#paint0_linear)"/>
<path d="M65.382 30.7529L65.79 51.8355L65.382 30.7529Z" fill="url(#paint1_linear)"/>
<path d="M65.314 30.6849L65.7221 51.7675C65.7221 51.7675 65.7221 51.8355 65.6541 51.7675L57.2211 50.9514L40.9671 49.3872C40.9671 49.3872 40.8991 49.3872 40.8991 49.3192L45.1156 36.0576L45.5237 34.7654L38.5868 23.7481C38.3148 23.34 37.8387 23.068 37.3627 23H37.4307L62.3217 29.0527L62.5937 29.1207C63.2058 29.3928 64.2939 29.8008 65.314 30.6849Z" fill="url(#paint2_linear)"/>
<path d="M38.7228 23.8161L45.6596 34.8334L45.2516 36.1256C45.5236 35.3095 45.3876 34.3573 44.8436 33.6773L37.4307 23.136V23.068C37.9747 23.136 38.3828 23.408 38.7228 23.8161Z" fill="url(#paint3_linear)"/>
<path d="M44.8435 33.6773C45.3875 34.4254 45.5236 35.3095 45.2515 36.1256L41.035 49.3872L40.2869 51.7675C40.0149 52.7196 39.2668 53.4677 38.3147 53.8757L23.6249 59.9285C22.8768 60.2005 22.0607 59.6564 22.1967 58.9763L22.8768 54.2838L23.9649 46.9389L26.4132 30.4129L36.2064 23.34C36.6145 23.068 37.0225 23 37.4986 23V23.068L44.8435 33.6773Z" fill="url(#paint4_linear)"/>
<path d="M45.1836 36.1255L40.967 49.4552V49.3871L45.1836 36.1255Z" fill="url(#paint5_linear)"/>
<path d="M26.3452 30.4809L23.8969 47.0069L19.6124 47.4829L10.9753 48.5031L9.68316 42.9264L9.61515 42.5864L9.54716 42.3143C9.54716 42.2463 9.54716 42.1783 9.54716 42.1103C9.41114 40.8862 9.81918 39.934 10.0912 39.458C10.2272 39.254 10.2952 39.1179 10.2952 39.1179L13.8317 35.6495L18.8643 33.5413L26.3452 30.4809Z" fill="url(#paint6_linear)"/>
<path d="M13.8317 35.6495L13.0836 33.4732C13.0156 33.2692 13.1516 33.0652 13.3556 33.0652L17.0281 31.9091C17.2321 31.9091 17.4361 31.9771 17.5722 32.1131L18.8643 33.5413L13.8317 35.6495Z" fill="url(#paint7_linear)"/>
<path d="M9.68321 42.9264L10.9754 48.5031H7.71097C7.43894 48.5031 7.23493 48.3671 7.16692 48.0951L6.07878 45.3747C5.87476 44.8307 6.07877 44.2866 6.55483 43.9466L9.47919 42.1104L9.6152 42.5864L9.68321 42.9264Z" fill="url(#paint8_linear)"/>
<path d="M9.54726 42.1783C9.54726 42.2463 9.54726 42.3143 9.54726 42.3823V42.1783L9.47925 42.0423C9.47925 42.1103 9.47925 42.1103 9.54726 42.1783Z" fill="url(#paint9_linear)"/>
<defs>
<linearGradient id="paint0_linear" x1="-1490.72" y1="45.3" x2="75.6306" y2="45.3" gradientUnits="userSpaceOnUse">
<stop stop-color="#565759"/>
<stop offset="0.5888" stop-color="#67686A"/>
<stop offset="1" stop-color="#6D6E71"/>
</linearGradient>
<linearGradient id="paint1_linear" x1="65.3263" y1="41.2603" x2="65.7717" y2="41.2603" gradientUnits="userSpaceOnUse">
<stop stop-color="#565759"/>
<stop offset="0.5888" stop-color="#67686A"/>
<stop offset="1" stop-color="#6D6E71"/>
</linearGradient>
<linearGradient id="paint2_linear" x1="37.449" y1="37.4586" x2="65.7718" y2="37.4586" gradientUnits="userSpaceOnUse">
<stop stop-color="#E9E9EA"/>
<stop offset="0.4704" stop-color="#D2D3D5"/>
<stop offset="1" stop-color="#BCBEC0"/>
</linearGradient>
<linearGradient id="paint3_linear" x1="31.1078" y1="29.6092" x2="80.9794" y2="29.6092" gradientUnits="userSpaceOnUse">
<stop stop-color="#565759"/>
<stop offset="0.5888" stop-color="#67686A"/>
<stop offset="1" stop-color="#6D6E71"/>
</linearGradient>
<linearGradient id="paint4_linear" x1="-15.8578" y1="41.5929" x2="1107.83" y2="41.5929" gradientUnits="userSpaceOnUse">
<stop stop-color="#565759"/>
<stop offset="0.5888" stop-color="#67686A"/>
<stop offset="1" stop-color="#6D6E71"/>
</linearGradient>
<linearGradient id="paint5_linear" x1="37.7211" y1="42.7858" x2="63.435" y2="42.7858" gradientUnits="userSpaceOnUse">
<stop stop-color="#565759"/>
<stop offset="0.5888" stop-color="#67686A"/>
<stop offset="1" stop-color="#6D6E71"/>
</linearGradient>
<linearGradient id="paint6_linear" x1="8.47882" y1="39.493" x2="26.3293" y2="39.493" gradientUnits="userSpaceOnUse">
<stop stop-color="#E9E9EA"/>
<stop offset="0.4704" stop-color="#D2D3D5"/>
<stop offset="1" stop-color="#BCBEC0"/>
</linearGradient>
<linearGradient id="paint7_linear" x1="13.0392" y1="33.7598" x2="18.8914" y2="33.7598" gradientUnits="userSpaceOnUse">
<stop stop-color="#565759"/>
<stop offset="0.5888" stop-color="#67686A"/>
<stop offset="1" stop-color="#6D6E71"/>
</linearGradient>
<linearGradient id="paint8_linear" x1="6.04546" y1="45.3643" x2="172.695" y2="45.3643" gradientUnits="userSpaceOnUse">
<stop stop-color="#AFB1B4"/>
<stop offset="0.3176" stop-color="#A3A5A7"/>
<stop offset="0.9326" stop-color="#848688"/>
<stop offset="1" stop-color="#808285"/>
</linearGradient>
<linearGradient id="paint9_linear" x1="8.49824" y1="42.195" x2="26.3304" y2="42.195" gradientUnits="userSpaceOnUse">
<stop stop-color="#D5D7D8"/>
<stop offset="0.2496" stop-color="#C8CACC"/>
<stop offset="0.7324" stop-color="#A7A9AC"/>
<stop offset="1" stop-color="#939598"/>
</linearGradient>
</defs>
</svg>
