<svg width="184" height="573" viewBox="0 0 184 573" fill="none" xmlns="http://www.w3.org/2000/svg">
  <path d="M17.69 503.264V484.378H22.25V498.096H30.078V486.088H34.638V498.096H46V503.264H17.69ZM25.328 482.567V477.893H28.216C27.1013 477.386 26.3033 476.664 25.822 475.727C25.3407 474.789 25.1 473.649 25.1 472.307V471.091H29.508V472.877C29.508 474.295 29.9513 475.435 30.838 476.297C31.7247 477.158 32.9407 477.589 34.486 477.589H46V482.567H25.328ZM46.456 458.55C46.456 460.627 45.9747 462.477 45.012 464.098C44.0493 465.694 42.7447 466.948 41.098 467.86C39.4513 468.747 37.6273 469.19 35.626 469.19C33.5993 469.19 31.7753 468.747 30.154 467.86C28.5073 466.948 27.2153 465.719 26.278 464.174C25.3407 462.603 24.872 460.855 24.872 458.93C24.872 456.853 25.328 455.054 26.24 453.534C27.1267 452.014 28.3427 450.861 29.888 450.076C31.4333 449.265 33.1307 448.86 34.98 448.86C35.8413 448.86 36.538 448.949 37.07 449.126V464.022C38.59 463.87 39.806 463.287 40.718 462.274C41.63 461.261 42.086 460.007 42.086 458.512C42.086 457.397 41.858 456.447 41.402 455.662C40.9207 454.851 40.262 454.205 39.426 453.724L41.402 449.696C42.922 450.329 44.1507 451.444 45.088 453.04C46 454.636 46.456 456.473 46.456 458.55ZM33.27 454.18C32.0033 454.307 30.9773 454.801 30.192 455.662C29.3813 456.523 28.976 457.613 28.976 458.93C28.976 460.197 29.356 461.273 30.116 462.16C30.8507 463.047 31.902 463.629 33.27 463.908V454.18ZM46.456 435.282C46.456 437.36 45.9747 439.209 45.012 440.83C44.0493 442.426 42.7447 443.68 41.098 444.592C39.4513 445.479 37.6273 445.922 35.626 445.922C33.5993 445.922 31.7753 445.479 30.154 444.592C28.5073 443.68 27.2153 442.452 26.278 440.906C25.3407 439.336 24.872 437.588 24.872 435.662C24.872 433.585 25.328 431.786 26.24 430.266C27.1267 428.746 28.3427 427.594 29.888 426.808C31.4333 425.998 33.1307 425.592 34.98 425.592C35.8413 425.592 36.538 425.681 37.07 425.858V440.754C38.59 440.602 39.806 440.02 40.718 439.006C41.63 437.993 42.086 436.739 42.086 435.244C42.086 434.13 41.858 433.18 41.402 432.394C40.9207 431.584 40.262 430.938 39.426 430.456L41.402 426.428C42.922 427.062 44.1507 428.176 45.088 429.772C46 431.368 46.456 433.205 46.456 435.282ZM33.27 430.912C32.0033 431.039 30.9773 431.533 30.192 432.394C29.3813 433.256 28.976 434.345 28.976 435.662C28.976 436.929 29.356 438.006 30.116 438.892C30.8507 439.779 31.902 440.362 33.27 440.64V430.912ZM46.456 404.539C46.456 406.768 46.038 408.706 45.202 410.353C44.366 411.974 43.3147 413.241 42.048 414.153C40.756 415.065 39.4133 415.647 38.02 415.901L36.728 411.037C38.2733 410.657 39.4767 409.897 40.338 408.757C41.1993 407.617 41.63 406.185 41.63 404.463C41.63 403.145 41.3007 402.081 40.642 401.271C39.9833 400.435 39.198 400.017 38.286 400.017C37.45 400.017 36.728 400.321 36.12 400.929C35.4867 401.511 35.0687 402.309 34.866 403.323L34.03 407.579C33.5993 409.833 32.624 411.607 31.104 412.899C29.584 414.191 27.7347 414.837 25.556 414.837C24.036 414.837 22.6427 414.406 21.376 413.545C20.084 412.658 19.0707 411.493 18.336 410.049C17.6013 408.579 17.234 407.021 17.234 405.375C17.234 403.272 17.5887 401.486 18.298 400.017C19.0073 398.547 19.9067 397.407 20.996 396.597C22.06 395.761 23.1873 395.203 24.378 394.925L25.898 399.751C24.53 400.283 23.5547 401.005 22.972 401.917C22.364 402.829 22.06 403.981 22.06 405.375C22.06 406.16 22.2247 406.869 22.554 407.503C22.8833 408.111 23.314 408.592 23.846 408.947C24.3527 409.276 24.872 409.441 25.404 409.441C26.24 409.441 26.9747 409.162 27.608 408.605C28.216 408.047 28.6087 407.275 28.786 406.287L29.66 402.259C30.192 399.801 31.2053 397.901 32.7 396.559C34.1693 395.216 35.93 394.545 37.982 394.545C39.4513 394.545 40.832 394.95 42.124 395.761C43.416 396.571 44.4673 397.737 45.278 399.257C46.0633 400.751 46.456 402.512 46.456 404.539ZM25.328 390.461V385.787H27.76C26.848 385.027 26.1387 384.09 25.632 382.975C25.1253 381.835 24.872 380.556 24.872 379.137C24.872 377.212 25.3533 375.451 26.316 373.855C27.2533 372.259 28.5453 371.005 30.192 370.093C31.8387 369.181 33.6627 368.725 35.664 368.725C37.6653 368.725 39.4893 369.181 41.136 370.093C42.7827 371.005 44.0873 372.259 45.05 373.855C45.9873 375.426 46.456 377.199 46.456 379.175C46.456 380.442 46.2533 381.62 45.848 382.709C45.4173 383.799 44.8093 384.723 44.024 385.483H53.6V390.461H25.328ZM35.664 385.483C36.8547 385.483 37.9313 385.243 38.894 384.761C39.8313 384.255 40.566 383.571 41.098 382.709C41.63 381.823 41.896 380.835 41.896 379.745C41.896 378.048 41.3133 376.655 40.148 375.565C38.9573 374.451 37.4627 373.893 35.664 373.893C34.4987 373.893 33.4473 374.147 32.51 374.653C31.5473 375.16 30.8 375.857 30.268 376.743C29.7107 377.63 29.432 378.631 29.432 379.745C29.432 380.835 29.698 381.823 30.23 382.709C30.762 383.571 31.5093 384.255 32.472 384.761C33.4093 385.243 34.4733 385.483 35.664 385.483ZM46.456 355.126C46.456 357.203 45.9747 359.053 45.012 360.674C44.0493 362.27 42.7447 363.524 41.098 364.436C39.4513 365.323 37.6273 365.766 35.626 365.766C33.5993 365.766 31.7753 365.323 30.154 364.436C28.5073 363.524 27.2153 362.295 26.278 360.75C25.3407 359.179 24.872 357.431 24.872 355.506C24.872 353.429 25.328 351.63 26.24 350.11C27.1267 348.59 28.3427 347.437 29.888 346.652C31.4333 345.841 33.1307 345.436 34.98 345.436C35.8413 345.436 36.538 345.525 37.07 345.702V360.598C38.59 360.446 39.806 359.863 40.718 358.85C41.63 357.837 42.086 356.583 42.086 355.088C42.086 353.973 41.858 353.023 41.402 352.238C40.9207 351.427 40.262 350.781 39.426 350.3L41.402 346.272C42.922 346.905 44.1507 348.02 45.088 349.616C46 351.212 46.456 353.049 46.456 355.126ZM33.27 350.756C32.0033 350.883 30.9773 351.377 30.192 352.238C29.3813 353.099 28.976 354.189 28.976 355.506C28.976 356.773 29.356 357.849 30.116 358.736C30.8507 359.623 31.902 360.205 33.27 360.484V350.756ZM46.456 331.858C46.456 333.936 45.9747 335.785 45.012 337.406C44.0493 339.002 42.7447 340.256 41.098 341.168C39.4513 342.055 37.6273 342.498 35.626 342.498C33.5993 342.498 31.7753 342.055 30.154 341.168C28.5073 340.256 27.2153 339.028 26.278 337.482C25.3407 335.912 24.872 334.164 24.872 332.238C24.872 330.161 25.328 328.362 26.24 326.842C27.1267 325.322 28.3427 324.17 29.888 323.384C31.4333 322.574 33.1307 322.168 34.98 322.168C35.8413 322.168 36.538 322.257 37.07 322.434L37.07 337.33C38.59 337.178 39.806 336.596 40.718 335.582C41.63 334.569 42.086 333.315 42.086 331.82C42.086 330.706 41.858 329.756 41.402 328.97C40.9207 328.16 40.262 327.514 39.426 327.032L41.402 323.004C42.922 323.638 44.1507 324.752 45.088 326.348C46 327.944 46.456 329.781 46.456 331.858ZM33.27 327.488C32.0033 327.615 30.9773 328.109 30.192 328.97C29.3813 329.832 28.976 330.921 28.976 332.238C28.976 333.505 29.356 334.582 30.116 335.468C30.8507 336.355 31.902 336.938 33.27 337.216V327.488ZM46.456 308.439C46.456 310.466 45.9873 312.315 45.05 313.987C44.0873 315.634 42.7827 316.926 41.136 317.863C39.4893 318.8 37.6527 319.269 35.626 319.269C33.5993 319.269 31.7753 318.8 30.154 317.863C28.5073 316.926 27.2153 315.634 26.278 313.987C25.3407 312.34 24.872 310.491 24.872 308.439C24.872 306.235 25.442 304.272 26.582 302.549C27.6967 300.826 29.166 299.648 30.99 299.015L32.89 303.347C31.826 303.752 30.99 304.411 30.382 305.323C29.7487 306.235 29.432 307.274 29.432 308.439C29.432 309.503 29.698 310.466 30.23 311.327C30.762 312.188 31.5093 312.872 32.472 313.379C33.4093 313.86 34.4733 314.101 35.664 314.101C36.8547 314.101 37.9313 313.86 38.894 313.379C39.8313 312.872 40.566 312.188 41.098 311.327C41.63 310.466 41.896 309.503 41.896 308.439C41.896 307.248 41.592 306.21 40.984 305.323C40.3507 304.411 39.4893 303.752 38.4 303.347L40.376 299.015C42.1747 299.623 43.644 300.801 44.784 302.549C45.8987 304.272 46.456 306.235 46.456 308.439ZM17.234 295.276V290.298H27.38C26.5693 289.715 25.9487 288.942 25.518 287.98C25.0873 287.017 24.872 285.94 24.872 284.75C24.872 283.255 25.2013 281.912 25.86 280.722C26.5187 279.531 27.4433 278.606 28.634 277.948C29.8247 277.289 31.18 276.96 32.7 276.96H46V281.938H33.878C32.5353 281.938 31.4587 282.33 30.648 283.116C29.8373 283.876 29.432 284.876 29.432 286.118C29.432 287.334 29.8373 288.334 30.648 289.12C31.4587 289.905 32.5353 290.298 33.878 290.298H46V295.276H17.234Z" fill="#9CA3AF" />
  <path d="M33.498 264.97V248.82H37.868V264.97H33.498ZM46.456 222.739C46.456 225.399 45.8227 227.806 44.556 229.959C43.2893 232.113 41.5413 233.81 39.312 235.051C37.0827 236.267 34.5873 236.875 31.826 236.875C29.0647 236.875 26.5693 236.267 24.34 235.051C22.1107 233.81 20.3753 232.125 19.134 229.997C17.8673 227.844 17.234 225.425 17.234 222.739C17.234 220.789 17.576 219.003 18.26 217.381C18.9187 215.76 19.818 214.392 20.958 213.277C22.0727 212.137 23.314 211.314 24.682 210.807L26.848 215.443C25.3787 216.001 24.2007 216.925 23.314 218.217C22.402 219.509 21.946 221.017 21.946 222.739C21.946 224.487 22.364 226.045 23.2 227.413C24.0107 228.781 25.1633 229.845 26.658 230.605C28.1527 231.34 29.8753 231.707 31.826 231.707C33.7767 231.707 35.512 231.34 37.032 230.605C38.5267 229.845 39.692 228.781 40.528 227.413C41.3387 226.045 41.744 224.487 41.744 222.739C41.744 221.017 41.3007 219.509 40.414 218.217C39.502 216.925 38.3113 216.001 36.842 215.443L39.008 210.807C40.376 211.314 41.63 212.137 42.77 213.277C43.8847 214.392 44.784 215.76 45.468 217.381C46.1267 219.003 46.456 220.789 46.456 222.739ZM46.456 197.293C46.456 199.294 45.9873 201.131 45.05 202.803C44.1127 204.475 42.8207 205.805 41.174 206.793C39.5273 207.755 37.6907 208.237 35.664 208.237C33.6373 208.237 31.8007 207.755 30.154 206.793C28.5073 205.83 27.2153 204.513 26.278 202.841C25.3407 201.169 24.872 199.319 24.872 197.293C24.872 195.291 25.3407 193.467 26.278 191.821C27.2153 190.149 28.5073 188.831 30.154 187.869C31.8007 186.881 33.6373 186.387 35.664 186.387C37.716 186.387 39.5653 186.881 41.212 187.869C42.8587 188.831 44.1507 190.149 45.088 191.821C46 193.493 46.456 195.317 46.456 197.293ZM35.664 203.069C37.4627 203.069 38.9573 202.537 40.148 201.473C41.3133 200.383 41.896 198.99 41.896 197.293C41.896 196.203 41.63 195.228 41.098 194.367C40.566 193.505 39.8313 192.834 38.894 192.353C37.9313 191.846 36.8547 191.593 35.664 191.593C34.4987 191.593 33.4473 191.846 32.51 192.353C31.5473 192.834 30.8 193.505 30.268 194.367C29.7107 195.228 29.432 196.203 29.432 197.293C29.432 198.407 29.7107 199.408 30.268 200.295C30.8 201.156 31.5347 201.84 32.472 202.347C33.4093 202.828 34.4733 203.069 35.664 203.069ZM25.328 182.612V177.938H27.874C26.9113 177.406 26.1767 176.633 25.67 175.62C25.138 174.581 24.872 173.403 24.872 172.086C24.872 170.591 25.2013 169.248 25.86 168.058C26.5187 166.867 27.4433 165.942 28.634 165.284C29.8247 164.625 31.18 164.296 32.7 164.296H46V169.274H33.878C32.5353 169.274 31.4587 169.666 30.648 170.452C29.8373 171.212 29.432 172.212 29.432 173.454C29.432 174.695 29.8373 175.708 30.648 176.494C31.4587 177.254 32.5353 177.634 33.878 177.634H46V182.612H25.328ZM25.328 160.086V155.412H27.874C26.9113 154.88 26.1767 154.108 25.67 153.094C25.138 152.056 24.872 150.878 24.872 149.56C24.872 148.066 25.2013 146.723 25.86 145.532C26.5187 144.342 27.4433 143.417 28.634 142.758C29.8247 142.1 31.18 141.77 32.7 141.77H46V146.748H33.878C32.5353 146.748 31.4587 147.141 30.648 147.926C29.8373 148.686 29.432 149.687 29.432 150.928C29.432 152.17 29.8373 153.183 30.648 153.968C31.4587 154.728 32.5353 155.108 33.878 155.108H46V160.086H25.328ZM46.456 127.757C46.456 129.834 45.9747 131.684 45.012 133.305C44.0493 134.901 42.7447 136.155 41.098 137.067C39.4513 137.954 37.6273 138.397 35.626 138.397C33.5993 138.397 31.7753 137.954 30.154 137.067C28.5073 136.155 27.2153 134.926 26.278 133.381C25.3407 131.81 24.872 130.062 24.872 128.137C24.872 126.06 25.328 124.261 26.24 122.741C27.1267 121.221 28.3427 120.068 29.888 119.283C31.4333 118.472 33.1307 118.067 34.98 118.067C35.8413 118.067 36.538 118.156 37.07 118.333V133.229C38.59 133.077 39.806 132.494 40.718 131.481C41.63 130.468 42.086 129.214 42.086 127.719C42.086 126.604 41.858 125.654 41.402 124.869C40.9207 124.058 40.262 123.412 39.426 122.931L41.402 118.903C42.922 119.536 44.1507 120.651 45.088 122.247C46 123.843 46.456 125.68 46.456 127.757ZM33.27 123.387C32.0033 123.514 30.9773 124.008 30.192 124.869C29.3813 125.73 28.976 126.82 28.976 128.137C28.976 129.404 29.356 130.48 30.116 131.367C30.8507 132.254 31.902 132.836 33.27 133.115L33.27 123.387ZM46.456 104.337C46.456 106.364 45.9873 108.213 45.05 109.885C44.0873 111.532 42.7827 112.824 41.136 113.761C39.4893 114.699 37.6527 115.167 35.626 115.167C33.5993 115.167 31.7753 114.699 30.154 113.761C28.5073 112.824 27.2153 111.532 26.278 109.885C25.3407 108.239 24.872 106.389 24.872 104.337C24.872 102.133 25.442 100.17 26.582 98.4473C27.6967 96.7247 29.166 95.5467 30.99 94.9133L32.89 99.2453C31.826 99.6507 30.99 100.309 30.382 101.221C29.7487 102.133 29.432 103.172 29.432 104.337C29.432 105.401 29.698 106.364 30.23 107.225C30.762 108.087 31.5093 108.771 32.472 109.277C33.4093 109.759 34.4733 109.999 35.664 109.999C36.8547 109.999 37.9313 109.759 38.894 109.277C39.8313 108.771 40.566 108.087 41.098 107.225C41.63 106.364 41.896 105.401 41.896 104.337C41.896 103.147 41.592 102.108 40.984 101.221C40.3507 100.309 39.4893 99.6507 38.4 99.2453L40.376 94.9133C42.1747 95.5213 43.644 96.6993 44.784 98.4473C45.8987 100.17 46.456 102.133 46.456 104.337ZM46.228 81.7502C46.228 84.0809 45.5947 85.8922 44.328 87.1842C43.036 88.4509 41.2247 89.0842 38.894 89.0842H29.774V92.6562H25.328V92.2762C25.328 91.2629 25.062 90.4775 24.53 89.9202C23.998 89.3629 23.2253 89.0842 22.212 89.0842H20.616V84.1062H25.328V79.3562H29.774V84.1062H38.628C40.7813 84.1062 41.858 82.9409 41.858 80.6102C41.858 80.2049 41.82 79.7615 41.744 79.2802H46.038C46.1647 80.0909 46.228 80.9142 46.228 81.7502ZM25.328 75.4769L25.328 70.4989H46V75.4769H25.328ZM19.628 75.8569C18.716 75.8569 18.0067 75.6036 17.5 75.0969C16.9933 74.5903 16.74 73.8936 16.74 73.0069C16.74 72.0949 16.9933 71.3856 17.5 70.8789C18.0067 70.3723 18.716 70.1189 19.628 70.1189C20.5147 70.1189 21.2113 70.3723 21.718 70.8789C22.2247 71.3603 22.478 72.0696 22.478 73.0069C22.478 73.8936 22.2247 74.5903 21.718 75.0969C21.2113 75.6036 20.5147 75.8569 19.628 75.8569ZM46.456 55.7947C46.456 57.796 45.9873 59.6327 45.05 61.3047C44.1127 62.9767 42.8207 64.3067 41.174 65.2947C39.5273 66.2574 37.6907 66.7387 35.664 66.7387C33.6373 66.7387 31.8007 66.2574 30.154 65.2947C28.5073 64.332 27.2153 63.0147 26.278 61.3427C25.3407 59.6707 24.872 57.8214 24.872 55.7947C24.872 53.7934 25.3407 51.9694 26.278 50.3227C27.2153 48.6507 28.5073 47.3334 30.154 46.3707C31.8007 45.3827 33.6373 44.8887 35.664 44.8887C37.716 44.8887 39.5653 45.3827 41.212 46.3707C42.8587 47.3334 44.1507 48.6507 45.088 50.3227C46 51.9947 46.456 53.8187 46.456 55.7947ZM35.664 61.5707C37.4627 61.5707 38.9573 61.0387 40.148 59.9747C41.3133 58.8854 41.896 57.492 41.896 55.7947C41.896 54.7054 41.63 53.73 41.098 52.8687C40.566 52.0074 39.8313 51.336 38.894 50.8547C37.9313 50.348 36.8547 50.0947 35.664 50.0947C34.4987 50.0947 33.4473 50.348 32.51 50.8547C31.5473 51.336 30.8 52.0074 30.268 52.8687C29.7107 53.73 29.432 54.7054 29.432 55.7947C29.432 56.9094 29.7107 57.91 30.268 58.7967C30.8 59.658 31.5347 60.342 32.472 60.8487C33.4093 61.33 34.4733 61.5707 35.664 61.5707ZM25.328 41.1136V36.4396H27.874C26.9113 35.9076 26.1767 35.135 25.67 34.1216C25.138 33.083 24.872 31.905 24.872 30.5876C24.872 29.093 25.2013 27.7503 25.86 26.5596C26.5187 25.369 27.4433 24.4443 28.634 23.7856C29.8247 23.127 31.18 22.7976 32.7 22.7976H46V27.7756H33.878C32.5353 27.7756 31.4587 28.1683 30.648 28.9536C29.8373 29.7136 29.432 30.7143 29.432 31.9556C29.432 33.197 29.8373 34.2103 30.648 34.9956C31.4587 35.7556 32.5353 36.1356 33.878 36.1356H46V41.1136H25.328Z" fill="#D1D5DB" />
  <path d="M74.69 504.264V485.378H79.25V499.096H87.078V487.088H91.638V499.096H103V504.264H74.69ZM103.456 472.791C103.456 474.792 102.987 476.629 102.05 478.301C101.113 479.973 99.8207 481.303 98.174 482.291C96.5273 483.253 94.6907 483.735 92.664 483.735C90.6373 483.735 88.8007 483.253 87.154 482.291C85.5073 481.328 84.2153 480.011 83.278 478.339C82.3407 476.667 81.872 474.817 81.872 472.791C81.872 470.789 82.3407 468.965 83.278 467.319C84.2153 465.647 85.5073 464.329 87.154 463.367C88.8007 462.379 90.6373 461.885 92.664 461.885C94.716 461.885 96.5653 462.379 98.212 463.367C99.8587 464.329 101.151 465.647 102.088 467.319C103 468.991 103.456 470.815 103.456 472.791ZM92.664 478.567C94.4627 478.567 95.9573 478.035 97.148 476.971C98.3133 475.881 98.896 474.488 98.896 472.791C98.896 471.701 98.63 470.726 98.098 469.865C97.566 469.003 96.8313 468.332 95.894 467.851C94.9313 467.344 93.8547 467.091 92.664 467.091C91.4987 467.091 90.4473 467.344 89.51 467.851C88.5473 468.332 87.8 469.003 87.268 469.865C86.7107 470.726 86.432 471.701 86.432 472.791C86.432 473.905 86.7107 474.906 87.268 475.793C87.8 476.654 88.5347 477.338 89.472 477.845C90.4093 478.326 91.4733 478.567 92.664 478.567ZM82.328 458.11V453.436H85.216C84.1013 452.929 83.3033 452.207 82.822 451.27C82.3407 450.332 82.1 449.192 82.1 447.85V446.634H86.508V448.42C86.508 449.838 86.9513 450.978 87.838 451.84C88.7247 452.701 89.9407 453.132 91.486 453.132H103V458.11H82.328ZM103.456 423.425C103.456 426.085 102.823 428.492 101.556 430.645C100.289 432.798 98.5413 434.496 96.312 435.737C94.0827 436.953 91.5873 437.561 88.826 437.561C86.0647 437.561 83.5693 436.953 81.34 435.737C79.1107 434.496 77.3753 432.811 76.134 430.683C74.8673 428.53 74.234 426.11 74.234 423.425C74.234 421.474 74.576 419.688 75.26 418.067C75.9187 416.446 76.818 415.078 77.958 413.963C79.0727 412.823 80.314 412 81.682 411.493L83.848 416.129C82.3787 416.686 81.2007 417.611 80.314 418.903C79.402 420.195 78.946 421.702 78.946 423.425C78.946 425.173 79.364 426.731 80.2 428.099C81.0107 429.467 82.1633 430.531 83.658 431.291C85.1527 432.026 86.8753 432.393 88.826 432.393C90.7767 432.393 92.512 432.026 94.032 431.291C95.5267 430.531 96.692 429.467 97.528 428.099C98.3387 426.731 98.744 425.173 98.744 423.425C98.744 421.702 98.3007 420.195 97.414 418.903C96.502 417.611 95.3113 416.686 93.842 416.129L96.008 411.493C97.376 412 98.63 412.823 99.77 413.963C100.885 415.078 101.784 416.446 102.468 418.067C103.127 419.688 103.456 421.474 103.456 423.425ZM82.328 407.715V403.041H85.216C84.1013 402.535 83.3033 401.813 82.822 400.875C82.3407 399.938 82.1 398.798 82.1 397.455V396.239H86.508V398.025C86.508 399.444 86.9513 400.584 87.838 401.445C88.7247 402.307 89.9407 402.737 91.486 402.737H103V407.715H82.328ZM103.456 383.698C103.456 385.776 102.975 387.625 102.012 389.246C101.049 390.842 99.7447 392.096 98.098 393.008C96.4513 393.895 94.6273 394.338 92.626 394.338C90.5993 394.338 88.7753 393.895 87.154 393.008C85.5073 392.096 84.2153 390.868 83.278 389.322C82.3407 387.752 81.872 386.004 81.872 384.078C81.872 382.001 82.328 380.202 83.24 378.682C84.1267 377.162 85.3427 376.01 86.888 375.224C88.4333 374.414 90.1307 374.008 91.98 374.008C92.8413 374.008 93.538 374.097 94.07 374.274V389.17C95.59 389.018 96.806 388.436 97.718 387.422C98.63 386.409 99.086 385.155 99.086 383.66C99.086 382.546 98.858 381.596 98.402 380.81C97.9207 380 97.262 379.354 96.426 378.872L98.402 374.844C99.922 375.478 101.151 376.592 102.088 378.188C103 379.784 103.456 381.621 103.456 383.698ZM90.27 379.328C89.0033 379.455 87.9773 379.949 87.192 380.81C86.3813 381.672 85.976 382.761 85.976 384.078C85.976 385.345 86.356 386.422 87.116 387.308C87.8507 388.195 88.902 388.778 90.27 389.056V379.328ZM103.456 364.076C103.456 366.255 102.924 367.99 101.86 369.282C100.796 370.549 99.352 371.182 97.528 371.182C95.78 371.182 94.336 370.587 93.196 369.396C92.056 368.205 91.296 366.419 90.916 364.038L89.928 357.882H89.244C88.332 357.882 87.5847 358.237 87.002 358.946C86.4193 359.63 86.128 360.542 86.128 361.682C86.128 362.746 86.4193 363.696 87.002 364.532C87.5593 365.343 88.3067 365.938 89.244 366.318L87.268 370.384C85.6467 369.776 84.342 368.661 83.354 367.04C82.366 365.419 81.872 363.569 81.872 361.492C81.872 359.82 82.1887 358.338 82.822 357.046C83.43 355.729 84.304 354.715 85.444 354.006C86.5587 353.271 87.8253 352.904 89.244 352.904H103V357.616H100.796C102.569 359.237 103.456 361.391 103.456 364.076ZM97.338 366.014C98.0473 366.014 98.6173 365.748 99.048 365.216C99.4533 364.684 99.656 364 99.656 363.164C99.656 361.619 99.1747 360.352 98.212 359.364C97.224 358.376 96.008 357.882 94.564 357.882H93.728L94.602 363.088C94.8047 364.076 95.134 364.811 95.59 365.292C96.0207 365.773 96.6033 366.014 97.338 366.014ZM103.228 339.25C103.228 341.581 102.595 343.392 101.328 344.684C100.036 345.951 98.2247 346.584 95.894 346.584H86.774V350.156H82.328V349.776C82.328 348.763 82.062 347.978 81.53 347.42C80.998 346.863 80.2253 346.584 79.212 346.584H77.616V341.606H82.328V336.856H86.774V341.606H95.628C97.7813 341.606 98.858 340.441 98.858 338.11C98.858 337.705 98.82 337.262 98.744 336.78H103.038C103.165 337.591 103.228 338.414 103.228 339.25ZM82.328 332.977V327.999H103L103 332.977H82.328ZM76.628 333.357C75.716 333.357 75.0067 333.104 74.5 332.597C73.9933 332.09 73.74 331.394 73.74 330.507C73.74 329.595 73.9933 328.886 74.5 328.379C75.0067 327.872 75.716 327.619 76.628 327.619C77.5147 327.619 78.2113 327.872 78.718 328.379C79.2247 328.86 79.478 329.57 79.478 330.507C79.478 331.394 79.2247 332.09 78.718 332.597C78.2113 333.104 77.5147 333.357 76.628 333.357ZM82.328 325.303V319.869L95.818 314.967L82.328 310.065V304.631L103 312.763V317.171L82.328 325.303ZM103.456 292.446C103.456 294.524 102.975 296.373 102.012 297.994C101.049 299.59 99.7447 300.844 98.098 301.756C96.4513 302.643 94.6273 303.086 92.626 303.086C90.5993 303.086 88.7753 302.643 87.154 301.756C85.5073 300.844 84.2153 299.616 83.278 298.07C82.3407 296.5 81.872 294.752 81.872 292.826C81.872 290.749 82.328 288.95 83.24 287.43C84.1267 285.91 85.3427 284.758 86.888 283.972C88.4333 283.162 90.1307 282.756 91.98 282.756C92.8413 282.756 93.538 282.845 94.07 283.022V297.918C95.59 297.766 96.806 297.184 97.718 296.17C98.63 295.157 99.086 293.903 99.086 292.408C99.086 291.294 98.858 290.344 98.402 289.558C97.9207 288.748 97.262 288.102 96.426 287.62L98.402 283.592C99.922 284.226 101.151 285.34 102.088 286.936C103 288.532 103.456 290.369 103.456 292.446ZM90.27 288.076C89.0033 288.203 87.9773 288.697 87.192 289.558C86.3813 290.42 85.976 291.509 85.976 292.826C85.976 294.093 86.356 295.17 87.116 296.056C87.8507 296.943 88.902 297.526 90.27 297.804V288.076ZM74.69 271.811V266.871L87.458 257.447L74.69 248.251V243.311H103V248.517H83.772L95.4 257.257V257.865L83.392 266.643H103V271.811H74.69ZM82.328 238.311V233.333H103V238.311H82.328ZM76.628 238.691C75.716 238.691 75.0067 238.438 74.5 237.931C73.9933 237.424 73.74 236.728 73.74 235.841C73.74 234.929 73.9933 234.22 74.5 233.713C75.0067 233.206 75.716 232.953 76.628 232.953C77.5147 232.953 78.2113 233.206 78.718 233.713C79.2247 234.194 79.478 234.904 79.478 235.841C79.478 236.728 79.2247 237.424 78.718 237.931C78.2113 238.438 77.5147 238.691 76.628 238.691ZM82.328 228.737V224.063H84.874C83.9113 223.531 83.1767 222.758 82.67 221.745C82.138 220.706 81.872 219.528 81.872 218.211C81.872 216.716 82.2013 215.373 82.86 214.183C83.5187 212.992 84.4433 212.067 85.634 211.409C86.8247 210.75 88.18 210.421 89.7 210.421H103V215.399H90.878C89.5353 215.399 88.4587 215.791 87.648 216.577C86.8373 217.337 86.432 218.337 86.432 219.579C86.432 220.82 86.8373 221.833 87.648 222.619C88.4587 223.379 89.5353 223.759 90.878 223.759H103V228.737H82.328ZM103.456 196.597C103.456 198.573 102.987 200.359 102.05 201.955C101.087 203.526 99.7827 204.767 98.136 205.679C96.4893 206.591 94.6653 207.047 92.664 207.047C90.6627 207.047 88.8387 206.591 87.192 205.679C85.5453 204.767 84.2533 203.513 83.316 201.917C82.3533 200.321 81.872 198.561 81.872 196.635C81.872 195.318 82.1 194.115 82.556 193.025C82.9867 191.936 83.6073 191.024 84.418 190.289H74.234V185.311H103V190.023H100.72C101.607 190.783 102.291 191.733 102.772 192.873C103.228 194.013 103.456 195.255 103.456 196.597ZM92.664 201.879C93.8547 201.879 94.9313 201.639 95.894 201.157C96.8313 200.651 97.566 199.954 98.098 199.067C98.63 198.181 98.896 197.18 98.896 196.065C98.896 194.951 98.63 193.963 98.098 193.101C97.566 192.215 96.8313 191.531 95.894 191.049C94.9313 190.543 93.8547 190.289 92.664 190.289C91.4733 190.289 90.4093 190.543 89.472 191.049C88.5093 191.531 87.762 192.215 87.23 193.101C86.698 193.988 86.432 194.976 86.432 196.065C86.432 197.18 86.7107 198.181 87.268 199.067C87.8 199.954 88.5473 200.651 89.51 201.157C90.4473 201.639 91.4987 201.879 92.664 201.879ZM103.418 172.928C103.418 175.005 102.924 176.842 101.936 178.438C100.948 180.009 99.5927 181.123 97.87 181.782L95.97 178.096C97.0847 177.539 97.9587 176.804 98.592 175.892C99.2 174.955 99.504 173.929 99.504 172.814C99.504 171.851 99.314 171.104 98.934 170.572C98.5287 170.015 97.984 169.736 97.3 169.736C96.7173 169.736 96.236 169.964 95.856 170.42C95.4507 170.876 95.1847 171.471 95.058 172.206L94.488 175.588C94.032 177.336 93.2593 178.691 92.17 179.654C91.0553 180.591 89.7507 181.06 88.256 181.06C87.0147 181.06 85.9127 180.731 84.95 180.072C83.962 179.413 83.202 178.501 82.67 177.336C82.138 176.145 81.872 174.803 81.872 173.308C81.872 171.408 82.328 169.736 83.24 168.292C84.1267 166.848 85.368 165.797 86.964 165.138L88.864 168.824C87.9773 169.229 87.268 169.85 86.736 170.686C86.204 171.522 85.938 172.447 85.938 173.46C85.938 174.296 86.128 174.967 86.508 175.474C86.888 175.955 87.382 176.196 87.99 176.196C89.1047 176.196 89.852 175.36 90.232 173.688L90.84 170.382C91.3213 168.634 92.1067 167.279 93.196 166.316C94.2853 165.353 95.5773 164.872 97.072 164.872C98.3133 164.872 99.4153 165.214 100.378 165.898C101.341 166.557 102.088 167.494 102.62 168.71C103.152 169.926 103.418 171.332 103.418 172.928ZM90.498 153.381V137.231H94.868V153.381H90.498Z" fill="#D1D5DB" />
  <path d="M103.456 114.342C103.456 116.571 103.038 118.509 102.202 120.156C101.366 121.777 100.315 123.044 99.048 123.956C97.756 124.868 96.4133 125.45 95.02 125.704L93.728 120.84C95.2733 120.46 96.4767 119.7 97.338 118.56C98.1993 117.42 98.63 115.988 98.63 114.266C98.63 112.948 98.3007 111.884 97.642 111.074C96.9833 110.238 96.198 109.82 95.286 109.82C94.45 109.82 93.728 110.124 93.12 110.732C92.4867 111.314 92.0687 112.112 91.866 113.126L91.03 117.382C90.5993 119.636 89.624 121.41 88.104 122.702C86.584 123.994 84.7347 124.64 82.556 124.64C81.036 124.64 79.6427 124.209 78.376 123.348C77.084 122.461 76.0707 121.296 75.336 119.852C74.6013 118.382 74.234 116.824 74.234 115.178C74.234 113.075 74.5887 111.289 75.298 109.82C76.0073 108.35 76.9067 107.21 77.996 106.4C79.06 105.564 80.1873 105.006 81.378 104.728L82.898 109.554C81.53 110.086 80.5547 110.808 79.972 111.72C79.364 112.632 79.06 113.784 79.06 115.178C79.06 115.963 79.2247 116.672 79.554 117.306C79.8833 117.914 80.314 118.395 80.846 118.75C81.3527 119.079 81.872 119.244 82.404 119.244C83.24 119.244 83.9747 118.965 84.608 118.408C85.216 117.85 85.6087 117.078 85.786 116.09L86.66 112.062C87.192 109.604 88.2053 107.704 89.7 106.362C91.1693 105.019 92.93 104.348 94.982 104.348C96.4513 104.348 97.832 104.753 99.124 105.564C100.416 106.374 101.467 107.54 102.278 109.06C103.063 110.554 103.456 112.315 103.456 114.342ZM74.234 100.264V95.286H84.38C83.5693 94.7034 82.9487 93.9307 82.518 92.968C82.0873 92.0054 81.872 90.9287 81.872 89.738C81.872 88.2434 82.2013 86.9007 82.86 85.71C83.5187 84.5194 84.4433 83.5947 85.634 82.936C86.8247 82.2774 88.18 81.948 89.7 81.948H103V86.926H90.878C89.5353 86.926 88.4587 87.3187 87.648 88.104C86.8373 88.864 86.432 89.8647 86.432 91.106C86.432 92.322 86.8373 93.3227 87.648 94.108C88.4587 94.8934 89.5353 95.286 90.878 95.286H103V100.264H74.234ZM103.456 71.4686C103.456 73.6473 102.924 75.3826 101.86 76.6746C100.796 77.9413 99.352 78.5746 97.528 78.5746C95.78 78.5746 94.336 77.9793 93.196 76.7886C92.056 75.598 91.296 73.812 90.916 71.4306L89.928 65.2746H89.244C88.332 65.2746 87.5847 65.6293 87.002 66.3386C86.4193 67.0226 86.128 67.9346 86.128 69.0746C86.128 70.1386 86.4193 71.0886 87.002 71.9246C87.5593 72.7353 88.3067 73.3306 89.244 73.7106L87.268 77.7766C85.6467 77.1686 84.342 76.054 83.354 74.4326C82.366 72.8113 81.872 70.962 81.872 68.8846C81.872 67.2126 82.1887 65.7306 82.822 64.4386C83.43 63.1213 84.304 62.108 85.444 61.3986C86.5587 60.664 87.8253 60.2966 89.244 60.2966H103V65.0086H100.796C102.569 66.63 103.456 68.7833 103.456 71.4686ZM97.338 73.4066C98.0473 73.4066 98.6173 73.1406 99.048 72.6086C99.4533 72.0766 99.656 71.3926 99.656 70.5566C99.656 69.0113 99.1747 67.7446 98.212 66.7566C97.224 65.7686 96.008 65.2746 94.564 65.2746H93.728L94.602 70.4806C94.8047 71.4686 95.134 72.2033 95.59 72.6846C96.0207 73.166 96.6033 73.4066 97.338 73.4066ZM82.328 55.6957V51.0217H85.216C84.1013 50.515 83.3033 49.793 82.822 48.8557C82.3407 47.9183 82.1 46.7783 82.1 45.4357V44.2197H86.508V46.0057C86.508 47.4243 86.9513 48.5643 87.838 49.4257C88.7247 50.287 89.9407 50.7177 91.486 50.7177H103V55.6957H82.328ZM103.456 31.6788C103.456 33.7561 102.975 35.6054 102.012 37.2268C101.049 38.8228 99.7447 40.0768 98.098 40.9888C96.4513 41.8754 94.6273 42.3188 92.626 42.3188C90.5993 42.3188 88.7753 41.8754 87.154 40.9888C85.5073 40.0768 84.2153 38.8481 83.278 37.3028C82.3407 35.7321 81.872 33.9841 81.872 32.0588C81.872 29.9814 82.328 28.1828 83.24 26.6628C84.1267 25.1428 85.3427 23.9901 86.888 23.2048C88.4333 22.3941 90.1307 21.9888 91.98 21.9888C92.8413 21.9888 93.538 22.0774 94.07 22.2548V37.1508C95.59 36.9988 96.806 36.4161 97.718 35.4028C98.63 34.3894 99.086 33.1354 99.086 31.6408C99.086 30.5261 98.858 29.5761 98.402 28.7908C97.9207 27.9801 97.262 27.3341 96.426 26.8528L98.402 22.8248C99.922 23.4581 101.151 24.5728 102.088 26.1688C103 27.7648 103.456 29.6014 103.456 31.6788ZM90.27 27.3088C89.0033 27.4354 87.9773 27.9294 87.192 28.7908C86.3813 29.6521 85.976 30.7414 85.976 32.0588C85.976 33.3254 86.356 34.4021 87.116 35.2888C87.8507 36.1754 88.902 36.7581 90.27 37.0368V27.3088Z" fill="#9CA3AF" />
  <path d="M131.69 547.582V542.034L152.97 536.79L131.69 531.28V525.922L152.97 520.45L131.69 515.206V509.658L160 517.258V523.186L139.632 528.62L160 534.054V539.982L131.69 547.582ZM131.234 506.94V501.962H141.38C140.569 501.379 139.949 500.606 139.518 499.644C139.087 498.681 138.872 497.604 138.872 496.414C138.872 494.919 139.201 493.576 139.86 492.386C140.519 491.195 141.443 490.27 142.634 489.612C143.825 488.953 145.18 488.624 146.7 488.624H160V493.602H147.878C146.535 493.602 145.459 493.994 144.648 494.78C143.837 495.54 143.432 496.54 143.432 497.782C143.432 498.998 143.837 499.998 144.648 500.784C145.459 501.569 146.535 501.962 147.878 501.962H160V506.94H131.234ZM160.456 474.61C160.456 476.688 159.975 478.537 159.012 480.158C158.049 481.754 156.745 483.008 155.098 483.92C153.451 484.807 151.627 485.25 149.626 485.25C147.599 485.25 145.775 484.807 144.154 483.92C142.507 483.008 141.215 481.78 140.278 480.234C139.341 478.664 138.872 476.916 138.872 474.99C138.872 472.913 139.328 471.114 140.24 469.594C141.127 468.074 142.343 466.922 143.888 466.136C145.433 465.326 147.131 464.92 148.98 464.92C149.841 464.92 150.538 465.009 151.07 465.186V480.082C152.59 479.93 153.806 479.348 154.718 478.334C155.63 477.321 156.086 476.067 156.086 474.572C156.086 473.458 155.858 472.508 155.402 471.722C154.921 470.912 154.262 470.266 153.426 469.784L155.402 465.756C156.922 466.39 158.151 467.504 159.088 469.1C160 470.696 160.456 472.533 160.456 474.61ZM147.27 470.24C146.003 470.367 144.977 470.861 144.192 471.722C143.381 472.584 142.976 473.673 142.976 474.99C142.976 476.257 143.356 477.334 144.116 478.22C144.851 479.107 145.902 479.69 147.27 479.968V470.24ZM139.328 461.147V456.473H142.216C141.101 455.966 140.303 455.244 139.822 454.307C139.341 453.37 139.1 452.23 139.1 450.887V449.671H143.508V451.457C143.508 452.876 143.951 454.016 144.838 454.877C145.725 455.738 146.941 456.169 148.486 456.169H160V461.147H139.328ZM160.456 437.13C160.456 439.207 159.975 441.057 159.012 442.678C158.049 444.274 156.745 445.528 155.098 446.44C153.451 447.327 151.627 447.77 149.626 447.77C147.599 447.77 145.775 447.327 144.154 446.44C142.507 445.528 141.215 444.299 140.278 442.754C139.341 441.183 138.872 439.435 138.872 437.51C138.872 435.433 139.328 433.634 140.24 432.114C141.127 430.594 142.343 429.441 143.888 428.656C145.433 427.845 147.131 427.44 148.98 427.44C149.841 427.44 150.538 427.529 151.07 427.706V442.602C152.59 442.45 153.806 441.867 154.718 440.854C155.63 439.841 156.086 438.587 156.086 437.092C156.086 435.977 155.858 435.027 155.402 434.242C154.921 433.431 154.262 432.785 153.426 432.304L155.402 428.276C156.922 428.909 158.151 430.024 159.088 431.62C160 433.216 160.456 435.053 160.456 437.13ZM147.27 432.76C146.003 432.887 144.977 433.381 144.192 434.242C143.381 435.103 142.976 436.193 142.976 437.51C142.976 438.777 143.356 439.853 144.116 440.74C144.851 441.627 145.902 442.209 147.27 442.488V432.76ZM131.69 161.33V156.39L144.458 146.966L131.69 137.77V132.83H160V138.036H140.772L152.4 146.776V147.384L140.392 156.162H160V161.33H131.69ZM160.456 121.56C160.456 123.739 159.924 125.474 158.86 126.766C157.796 128.033 156.352 128.666 154.528 128.666C152.78 128.666 151.336 128.071 150.196 126.88C149.056 125.69 148.296 123.904 147.916 121.522L146.928 115.366H146.244C145.332 115.366 144.585 115.721 144.002 116.43C143.419 117.114 143.128 118.026 143.128 119.166C143.128 120.23 143.419 121.18 144.002 122.016C144.559 122.827 145.307 123.422 146.244 123.802L144.268 127.868C142.647 127.26 141.342 126.146 140.354 124.524C139.366 122.903 138.872 121.054 138.872 118.976C138.872 117.304 139.189 115.822 139.822 114.53C140.43 113.213 141.304 112.2 142.444 111.49C143.559 110.756 144.825 110.388 146.244 110.388H160V115.1H157.796C159.569 116.722 160.456 118.875 160.456 121.56ZM154.338 123.498C155.047 123.498 155.617 123.232 156.048 122.7C156.453 122.168 156.656 121.484 156.656 120.648C156.656 119.103 156.175 117.836 155.212 116.848C154.224 115.86 153.008 115.366 151.564 115.366H150.728L151.602 120.572C151.805 121.56 152.134 122.295 152.59 122.776C153.021 123.258 153.603 123.498 154.338 123.498ZM160.228 96.7346C160.228 99.0652 159.595 100.877 158.328 102.169C157.036 103.435 155.225 104.069 152.894 104.069H143.774V107.641H139.328V107.261C139.328 106.247 139.062 105.462 138.53 104.905C137.998 104.347 137.225 104.069 136.212 104.069H134.616V99.0906H139.328V94.3406H143.774V99.0906H152.628C154.781 99.0906 155.858 97.9252 155.858 95.5946C155.858 95.1892 155.82 94.7459 155.744 94.2646H160.038C160.165 95.0752 160.228 95.8986 160.228 96.7346ZM160.228 81.0373C160.228 83.368 159.595 85.1793 158.328 86.4713C157.036 87.738 155.225 88.3713 152.894 88.3713H143.774V91.9433H139.328V91.5633C139.328 90.55 139.062 89.7646 138.53 89.2073C137.998 88.65 137.225 88.3713 136.212 88.3713H134.616V83.3933H139.328V78.6433H143.774V83.3933H152.628C154.781 83.3933 155.858 82.228 155.858 79.8973C155.858 79.492 155.82 79.0486 155.744 78.5673H160.038C160.165 79.378 160.228 80.2013 160.228 81.0373ZM160.456 65.1456C160.456 67.2229 159.975 69.0722 159.012 70.6936C158.049 72.2896 156.745 73.5436 155.098 74.4556C153.451 75.3422 151.627 75.7856 149.626 75.7856C147.599 75.7856 145.775 75.3422 144.154 74.4556C142.507 73.5436 141.215 72.3149 140.278 70.7696C139.341 69.1989 138.872 67.4509 138.872 65.5256C138.872 63.4482 139.328 61.6496 140.24 60.1296C141.127 58.6096 142.343 57.4569 143.888 56.6716C145.433 55.8609 147.131 55.4556 148.98 55.4556C149.841 55.4556 150.538 55.5442 151.07 55.7216V70.6176C152.59 70.4656 153.806 69.8829 154.718 68.8696C155.63 67.8562 156.086 66.6022 156.086 65.1076C156.086 63.9929 155.858 63.0429 155.402 62.2576C154.921 61.4469 154.262 60.8009 153.426 60.3196L155.402 56.2916C156.922 56.9249 158.151 58.0396 159.088 59.6356C160 61.2316 160.456 63.0682 160.456 65.1456ZM147.27 60.7756C146.003 60.9022 144.977 61.3962 144.192 62.2576C143.381 63.1189 142.976 64.2082 142.976 65.5256C142.976 66.7922 143.356 67.8689 144.116 68.7556C144.851 69.6422 145.902 70.2249 147.27 70.5036V60.7756ZM139.328 51.682V47.008H142.216C141.101 46.5013 140.303 45.7793 139.822 44.842C139.341 43.9047 139.1 42.7647 139.1 41.422V40.206H143.508V41.992C143.508 43.4107 143.951 44.5507 144.838 45.412C145.725 46.2733 146.941 46.704 148.486 46.704H160V51.682H139.328ZM160.418 29.7171C160.418 31.7944 159.924 33.6311 158.936 35.2271C157.948 36.7978 156.593 37.9124 154.87 38.5711L152.97 34.8851C154.085 34.3278 154.959 33.5931 155.592 32.6811C156.2 31.7438 156.504 30.7178 156.504 29.6031C156.504 28.6404 156.314 27.8931 155.934 27.3611C155.529 26.8038 154.984 26.5251 154.3 26.5251C153.717 26.5251 153.236 26.7531 152.856 27.2091C152.451 27.6651 152.185 28.2604 152.058 28.9951L151.488 32.3771C151.032 34.1251 150.259 35.4804 149.17 36.4431C148.055 37.3804 146.751 37.8491 145.256 37.8491C144.015 37.8491 142.913 37.5198 141.95 36.8611C140.962 36.2024 140.202 35.2904 139.67 34.1251C139.138 32.9344 138.872 31.5918 138.872 30.0971C138.872 28.1971 139.328 26.5251 140.24 25.0811C141.127 23.6371 142.368 22.5858 143.964 21.9271L145.864 25.6131C144.977 26.0184 144.268 26.6391 143.736 27.4751C143.204 28.3111 142.938 29.2358 142.938 30.2491C142.938 31.0851 143.128 31.7564 143.508 32.2631C143.888 32.7444 144.382 32.9851 144.99 32.9851C146.105 32.9851 146.852 32.1491 147.232 30.4771L147.84 27.1711C148.321 25.4231 149.107 24.0678 150.196 23.1051C151.285 22.1424 152.577 21.6611 154.072 21.6611C155.313 21.6611 156.415 22.0031 157.378 22.6871C158.341 23.3458 159.088 24.2831 159.62 25.4991C160.152 26.7151 160.418 28.1211 160.418 29.7171Z" fill="#D1D5DB" />
  <path d="M160.456 403.194C160.456 405.854 159.823 408.261 158.556 410.414C157.289 412.568 155.541 414.265 153.312 415.506C151.083 416.722 148.587 417.33 145.826 417.33C143.065 417.33 140.569 416.722 138.34 415.506C136.111 414.265 134.375 412.58 133.134 410.452C131.867 408.299 131.234 405.88 131.234 403.194C131.234 401.244 131.576 399.458 132.26 397.836C132.919 396.215 133.818 394.847 134.958 393.732C136.073 392.592 137.314 391.769 138.682 391.262L140.848 395.898C139.379 396.456 138.201 397.38 137.314 398.672C136.402 399.964 135.946 401.472 135.946 403.194C135.946 404.942 136.364 406.5 137.2 407.868C138.011 409.236 139.163 410.3 140.658 411.06C142.153 411.795 143.875 412.162 145.826 412.162C147.777 412.162 149.512 411.795 151.032 411.06C152.527 410.3 153.692 409.236 154.528 407.868C155.339 406.5 155.744 404.942 155.744 403.194C155.744 401.472 155.301 399.964 154.414 398.672C153.502 397.38 152.311 396.456 150.842 395.898L153.008 391.262C154.376 391.769 155.63 392.592 156.77 393.732C157.885 394.847 158.784 396.215 159.468 397.836C160.127 399.458 160.456 401.244 160.456 403.194ZM160.456 377.748C160.456 379.749 159.987 381.586 159.05 383.258C158.113 384.93 156.821 386.26 155.174 387.248C153.527 388.21 151.691 388.692 149.664 388.692C147.637 388.692 145.801 388.21 144.154 387.248C142.507 386.285 141.215 384.968 140.278 383.296C139.341 381.624 138.872 379.774 138.872 377.748C138.872 375.746 139.341 373.922 140.278 372.276C141.215 370.604 142.507 369.286 144.154 368.324C145.801 367.336 147.637 366.842 149.664 366.842C151.716 366.842 153.565 367.336 155.212 368.324C156.859 369.286 158.151 370.604 159.088 372.276C160 373.948 160.456 375.772 160.456 377.748ZM149.664 383.524C151.463 383.524 152.957 382.992 154.148 381.928C155.313 380.838 155.896 379.445 155.896 377.748C155.896 376.658 155.63 375.683 155.098 374.822C154.566 373.96 153.831 373.289 152.894 372.808C151.931 372.301 150.855 372.048 149.664 372.048C148.499 372.048 147.447 372.301 146.51 372.808C145.547 373.289 144.8 373.96 144.268 374.822C143.711 375.683 143.432 376.658 143.432 377.748C143.432 378.862 143.711 379.863 144.268 380.75C144.8 381.611 145.535 382.295 146.472 382.802C147.409 383.283 148.473 383.524 149.664 383.524ZM139.328 363.067V358.393H141.874C140.911 357.861 140.177 357.088 139.67 356.075C139.138 355.036 138.872 353.858 138.872 352.541C138.872 351.046 139.201 349.703 139.86 348.513C140.519 347.322 141.443 346.397 142.634 345.739C143.825 345.08 145.18 344.751 146.7 344.751H160V349.729H147.878C146.535 349.729 145.459 350.121 144.648 350.907C143.837 351.667 143.432 352.667 143.432 353.909C143.432 355.15 143.837 356.163 144.648 356.949C145.459 357.709 146.535 358.089 147.878 358.089H160V363.067H139.328ZM139.328 342.812V337.378L152.818 332.476L139.328 327.574V322.14L160 330.272V334.68L139.328 342.812ZM160.456 309.956C160.456 312.033 159.975 313.883 159.012 315.504C158.049 317.1 156.745 318.354 155.098 319.266C153.451 320.153 151.627 320.596 149.626 320.596C147.599 320.596 145.775 320.153 144.154 319.266C142.507 318.354 141.215 317.125 140.278 315.58C139.341 314.009 138.872 312.261 138.872 310.336C138.872 308.259 139.328 306.46 140.24 304.94C141.127 303.42 142.343 302.267 143.888 301.482C145.433 300.671 147.131 300.266 148.98 300.266C149.841 300.266 150.538 300.355 151.07 300.532V315.428C152.59 315.276 153.806 314.693 154.718 313.68C155.63 312.667 156.086 311.413 156.086 309.918C156.086 308.803 155.858 307.853 155.402 307.068C154.921 306.257 154.262 305.611 153.426 305.13L155.402 301.102C156.922 301.735 158.151 302.85 159.088 304.446C160 306.042 160.456 307.879 160.456 309.956ZM147.27 305.586C146.003 305.713 144.977 306.207 144.192 307.068C143.381 307.929 142.976 309.019 142.976 310.336C142.976 311.603 143.356 312.679 144.116 313.566C144.851 314.453 145.902 315.035 147.27 315.314V305.586ZM139.328 296.493V291.819H142.216C141.101 291.312 140.303 290.59 139.822 289.653C139.341 288.715 139.1 287.575 139.1 286.233V285.017H143.508V286.803C143.508 288.221 143.951 289.361 144.838 290.223C145.725 291.084 146.941 291.515 148.486 291.515H160V296.493H139.328ZM160.418 274.528C160.418 276.605 159.924 278.442 158.936 280.038C157.948 281.608 156.593 282.723 154.87 283.382L152.97 279.696C154.085 279.138 154.959 278.404 155.592 277.492C156.2 276.554 156.504 275.528 156.504 274.414C156.504 273.451 156.314 272.704 155.934 272.172C155.529 271.614 154.984 271.336 154.3 271.336C153.717 271.336 153.236 271.564 152.856 272.02C152.451 272.476 152.185 273.071 152.058 273.806L151.488 277.188C151.032 278.936 150.259 280.291 149.17 281.254C148.055 282.191 146.751 282.66 145.256 282.66C144.015 282.66 142.913 282.33 141.95 281.672C140.962 281.013 140.202 280.101 139.67 278.936C139.138 277.745 138.872 276.402 138.872 274.908C138.872 273.008 139.328 271.336 140.24 269.892C141.127 268.448 142.368 267.396 143.964 266.738L145.864 270.424C144.977 270.829 144.268 271.45 143.736 272.286C143.204 273.122 142.938 274.046 142.938 275.06C142.938 275.896 143.128 276.567 143.508 277.074C143.888 277.555 144.382 277.796 144.99 277.796C146.105 277.796 146.852 276.96 147.232 275.288L147.84 271.982C148.321 270.234 149.107 268.878 150.196 267.916C151.285 266.953 152.577 266.472 154.072 266.472C155.313 266.472 156.415 266.814 157.378 267.498C158.341 268.156 159.088 269.094 159.62 270.31C160.152 271.526 160.418 272.932 160.418 274.528ZM160.456 256.49C160.456 258.669 159.924 260.404 158.86 261.696C157.796 262.963 156.352 263.596 154.528 263.596C152.78 263.596 151.336 263.001 150.196 261.81C149.056 260.619 148.296 258.833 147.916 256.452L146.928 250.296H146.244C145.332 250.296 144.585 250.651 144.002 251.36C143.419 252.044 143.128 252.956 143.128 254.096C143.128 255.16 143.419 256.11 144.002 256.946C144.559 257.757 145.307 258.352 146.244 258.732L144.268 262.798C142.647 262.19 141.342 261.075 140.354 259.454C139.366 257.833 138.872 255.983 138.872 253.906C138.872 252.234 139.189 250.752 139.822 249.46C140.43 248.143 141.304 247.129 142.444 246.42C143.559 245.685 144.825 245.318 146.244 245.318H160V250.03H157.796C159.569 251.651 160.456 253.805 160.456 256.49ZM154.338 258.428C155.047 258.428 155.617 258.162 156.048 257.63C156.453 257.098 156.656 256.414 156.656 255.578C156.656 254.033 156.175 252.766 155.212 251.778C154.224 250.79 153.008 250.296 151.564 250.296H150.728L151.602 255.502C151.805 256.49 152.134 257.225 152.59 257.706C153.021 258.187 153.603 258.428 154.338 258.428ZM160.228 231.664C160.228 233.995 159.595 235.806 158.328 237.098C157.036 238.365 155.225 238.998 152.894 238.998H143.774V242.57H139.328V242.19C139.328 241.177 139.062 240.392 138.53 239.834C137.998 239.277 137.225 238.998 136.212 238.998H134.616V234.02H139.328V229.27H143.774V234.02H152.628C154.781 234.02 155.858 232.855 155.858 230.524C155.858 230.119 155.82 229.676 155.744 229.194H160.038C160.165 230.005 160.228 230.828 160.228 231.664ZM139.328 225.391V220.413H160V225.391H139.328ZM133.628 225.771C132.716 225.771 132.007 225.518 131.5 225.011C130.993 224.504 130.74 223.808 130.74 222.921C130.74 222.009 130.993 221.3 131.5 220.793C132.007 220.286 132.716 220.033 133.628 220.033C134.515 220.033 135.211 220.286 135.718 220.793C136.225 221.274 136.478 221.984 136.478 222.921C136.478 223.808 136.225 224.504 135.718 225.011C135.211 225.518 134.515 225.771 133.628 225.771ZM160.456 205.709C160.456 207.71 159.987 209.547 159.05 211.219C158.113 212.891 156.821 214.221 155.174 215.209C153.527 216.171 151.691 216.653 149.664 216.653C147.637 216.653 145.801 216.171 144.154 215.209C142.507 214.246 141.215 212.929 140.278 211.257C139.341 209.585 138.872 207.735 138.872 205.709C138.872 203.707 139.341 201.883 140.278 200.237C141.215 198.565 142.507 197.247 144.154 196.285C145.801 195.297 147.637 194.803 149.664 194.803C151.716 194.803 153.565 195.297 155.212 196.285C156.859 197.247 158.151 198.565 159.088 200.237C160 201.909 160.456 203.733 160.456 205.709ZM149.664 211.485C151.463 211.485 152.957 210.953 154.148 209.889C155.313 208.799 155.896 207.406 155.896 205.709C155.896 204.619 155.63 203.644 155.098 202.783C154.566 201.921 153.831 201.25 152.894 200.769C151.931 200.262 150.855 200.009 149.664 200.009C148.499 200.009 147.447 200.262 146.51 200.769C145.547 201.25 144.8 201.921 144.268 202.783C143.711 203.644 143.432 204.619 143.432 205.709C143.432 206.823 143.711 207.824 144.268 208.711C144.8 209.572 145.535 210.256 146.472 210.763C147.409 211.244 148.473 211.485 149.664 211.485ZM139.328 191.028V186.354H141.874C140.911 185.822 140.177 185.049 139.67 184.036C139.138 182.997 138.872 181.819 138.872 180.502C138.872 179.007 139.201 177.664 139.86 176.474C140.519 175.283 141.443 174.358 142.634 173.7C143.825 173.041 145.18 172.712 146.7 172.712H160V177.69H147.878C146.535 177.69 145.459 178.082 144.648 178.868C143.837 179.628 143.432 180.628 143.432 181.87C143.432 183.111 143.837 184.124 144.648 184.91C145.459 185.67 146.535 186.05 147.878 186.05H160V191.028H139.328Z" fill="#9CA3AF" />
  <rect width="184" height="573" fill="url(#paint0_linear)" />
  <defs>
    <linearGradient id="paint0_linear" x1="92" y1="0" x2="92" y2="573" gradientUnits="userSpaceOnUse">
      <stop stop-color="#F3F4F6" />
      <stop offset="0.536458" stop-color="white" stop-opacity="0" />
      <stop offset="1" stop-color="#F3F4F6" />
    </linearGradient>
  </defs>
</svg>
  