<svg width="100" height="100" viewBox="0 0 100 100" fill="none" xmlns="http://www.w3.org/2000/svg">
<rect width="100" height="100" rx="50" fill="#ACB3C9"/>
<path d="M80.3589 76.2366C80.3589 78.4496 79.4977 80.6011 77.8007 82.0217C70.4401 88.1833 60.8813 91.916 50.4366 91.916C39.8443 91.916 30.167 88.0686 22.7667 81.7472C21.1032 80.3262 20.2619 78.1978 20.2619 76.01V74.3491C20.2619 67.8846 25.6406 62.6379 32.2813 62.6379H68.3395C74.9802 62.6379 80.3589 67.8846 80.3589 74.3491V76.2366Z" fill="#E4E7F1"/>
<path d="M50.3074 19.4914C40.5206 19.4914 32.5895 27.4225 32.5895 37.2093C32.5895 47.0021 40.5206 54.9332 50.3074 54.9332C60.0943 54.9332 68.0313 47.0021 68.0313 37.2093C68.0313 27.4225 60.0943 19.4914 50.3074 19.4914Z" fill="#E4E7F1"/>
</svg>
