<svg width="18" height="20" viewBox="0 0 18 20" fill="none" xmlns="http://www.w3.org/2000/svg">
  <g clip-path="url(#clip0)">
  <path d="M6.18652 15.228C6.18652 15.3005 6.10769 15.3584 6.00829 15.3584C5.89519 15.3693 5.81636 15.3113 5.81636 15.228C5.81636 15.1556 5.89519 15.0976 5.99458 15.0976C6.0974 15.0867 6.18652 15.1447 6.18652 15.228ZM5.12059 15.065C5.0966 15.1375 5.16515 15.2208 5.26797 15.2425C5.35708 15.2787 5.4599 15.2425 5.48047 15.1701C5.50103 15.0976 5.43591 15.0143 5.33309 14.9817C5.24398 14.9563 5.14458 14.9926 5.12059 15.065ZM6.63551 15.0034C6.53611 15.0288 6.46756 15.0976 6.47785 15.1809C6.48813 15.2534 6.57724 15.3005 6.68006 15.2751C6.77946 15.2497 6.84801 15.1809 6.83773 15.1085C6.82744 15.0397 6.7349 14.9926 6.63551 15.0034ZM8.89075 1.12332C4.13692 1.12332 0.500427 4.93746 0.500427 9.96139C0.500427 13.9784 2.89277 17.4158 6.3099 18.6256C6.74861 18.7089 6.90285 18.4228 6.90285 18.1873C6.90285 17.9627 6.89256 16.724 6.89256 15.9633C6.89256 15.9633 4.49337 16.5066 3.98954 14.8839C3.98954 14.8839 3.59881 13.8299 3.03672 13.5582C3.03672 13.5582 2.25184 12.9895 3.09156 13.0004C3.09156 13.0004 3.94498 13.0728 4.41454 13.9349C5.16514 15.3331 6.42301 14.931 6.91313 14.6919C6.99196 14.1124 7.21474 13.7103 7.46152 13.4713C5.54559 13.2467 3.61252 12.9533 3.61252 9.46878C3.61252 8.47268 3.87301 7.97282 4.4214 7.33532C4.33228 7.09988 4.04095 6.12915 4.51051 4.87588C5.22684 4.64044 6.87543 5.85386 6.87543 5.85386C7.56091 5.65102 8.29781 5.54598 9.02785 5.54598C9.75789 5.54598 10.4948 5.65102 11.1803 5.85386C11.1803 5.85386 12.8289 4.63682 13.5452 4.87588C14.0147 6.13277 13.7234 7.09988 13.6343 7.33532C14.1827 7.97645 14.5186 8.4763 14.5186 9.46878C14.5186 12.9642 12.4998 13.2431 10.5839 13.4713C10.8992 13.7574 11.1666 14.3007 11.1666 15.1519C11.1666 16.3726 11.1563 17.8831 11.1563 18.1801C11.1563 18.4155 11.3139 18.7017 11.7492 18.6183C15.1766 17.4158 17.5004 13.9784 17.5004 9.96139C17.5004 4.93746 13.6446 1.12332 8.89075 1.12332ZM3.83188 13.6161C3.78732 13.6524 3.7976 13.7357 3.85587 13.8045C3.91071 13.8625 3.98954 13.8878 4.0341 13.8407C4.07865 13.8045 4.06837 13.7212 4.0101 13.6524C3.95527 13.5944 3.87644 13.5691 3.83188 13.6161ZM3.46172 13.3228C3.43773 13.3698 3.472 13.4278 3.54055 13.464C3.59539 13.5002 3.66394 13.4894 3.68793 13.4387C3.71192 13.3916 3.67764 13.3336 3.6091 13.2974C3.54055 13.2757 3.48571 13.2865 3.46172 13.3228ZM4.5722 14.6122C4.51736 14.6593 4.53793 14.768 4.61676 14.8368C4.69559 14.9201 4.79498 14.931 4.83954 14.873C4.8841 14.8259 4.86353 14.7173 4.79498 14.6485C4.71958 14.5652 4.61676 14.5543 4.5722 14.6122ZM4.18148 14.0798C4.12664 14.116 4.12664 14.2102 4.18148 14.2935C4.23631 14.3768 4.32885 14.413 4.37341 14.3768C4.42825 14.3297 4.42825 14.2355 4.37341 14.1522C4.32543 14.0689 4.23631 14.0327 4.18148 14.0798Z" fill="#ACB3C9"/>
  </g>
  <defs>
  <clipPath id="clip0">
  <rect width="17" height="18.5455" fill="white" transform="translate(0.500427 0.833557)"/>
  </clipPath>
  </defs>
  </svg>
