<svg width="125" height="39" viewBox="0 0 125 39" fill="none" xmlns="http://www.w3.org/2000/svg">
<path d="M9.83056 13.2906L9.27569 9.65317L1.87758 12.3966C1.744 12.4326 1.47994 12.5724 1.49227 12.8436C1.5046 13.1149 1.793 13.2462 1.92167 13.2462L9.83056 13.2906Z" fill="#AAABAD"/>
<path d="M19.3839 28.6388C19.2347 28.455 19.4245 28.1198 19.5488 27.9926L34.853 9.90257C34.9225 9.81198 35.0098 9.66951 35.2332 9.72726C35.4567 9.785 35.4791 10.0254 35.4623 10.1384C34.5901 16.0478 32.7937 28.0221 32.737 28.4245C32.6802 28.8269 32.2735 28.8991 32.1639 28.8946L19.8786 28.9121C19.7702 28.8976 19.5331 28.8227 19.3839 28.6388Z" fill="url(#paint0_linear_78_5)"/>
<path d="M11.7766 28.0983L9.26559 9.65676C9.26559 9.65676 9.54806 9.60342 10.0094 9.90785C10.4708 10.2123 32.5424 27.7781 32.5424 27.7781C32.6701 27.8833 32.8362 28.1824 32.7162 28.5095C32.5961 28.8365 32.2915 28.905 32.1247 28.9018C25.9367 28.9053 13.1322 28.9122 12.5624 28.9122C11.9926 28.9122 11.8092 28.3696 11.7766 28.0983Z" fill="url(#paint1_linear_78_5)"/>
<path d="M11.9721 28.6388C11.823 28.455 12.0128 28.1198 12.1371 27.9926L27.4412 9.90257C27.5108 9.81198 27.598 9.66951 27.8215 9.72726C28.0449 9.785 28.0673 10.0254 28.0506 10.1384C27.1783 16.0478 25.4605 28.0202 25.4037 28.4226C25.347 28.825 25.1135 28.9166 25.0039 28.9121H12.4669C12.3585 28.8976 12.1213 28.8227 11.9721 28.6388Z" fill="url(#paint2_linear_78_5)"/>
<path d="M48.2421 16.7412H50.6138V18.8238L50.3824 18.3031C50.7424 17.7375 51.2309 17.3004 51.8479 16.9919C52.4778 16.6705 53.1913 16.5098 53.9883 16.5098C54.9653 16.5098 55.8587 16.7541 56.6686 17.2426C57.4785 17.7311 58.1148 18.3931 58.5776 19.2287C59.0404 20.0514 59.2718 20.9706 59.2718 21.9861C59.2718 23.0017 59.0404 23.9272 58.5776 24.7628C58.1148 25.5984 57.4785 26.2604 56.6686 26.7489C55.8716 27.2246 54.9717 27.4624 53.969 27.4624C53.1977 27.4624 52.4907 27.3081 51.8479 26.9996C51.218 26.6911 50.7231 26.2604 50.3632 25.7077L50.7681 25.2063V31.0875H48.2421V16.7412ZM53.6798 25.1485C54.2454 25.1485 54.7532 25.0135 55.2031 24.7435C55.6659 24.4736 56.0194 24.1008 56.2637 23.6251C56.5208 23.1366 56.6493 22.5903 56.6493 21.9861C56.6493 21.3819 56.5208 20.842 56.2637 20.3664C56.0194 19.8907 55.6659 19.5179 55.2031 19.248C54.7532 18.9652 54.2454 18.8238 53.6798 18.8238C53.127 18.8238 52.6257 18.9587 52.1757 19.2287C51.7387 19.4986 51.3916 19.8779 51.1345 20.3664C50.8902 20.8549 50.7681 21.3948 50.7681 21.9861C50.7681 22.5903 50.8902 23.1366 51.1345 23.6251C51.3916 24.1008 51.7387 24.4736 52.1757 24.7435C52.6257 25.0135 53.127 25.1485 53.6798 25.1485ZM61.1976 16.7412H63.5694V19.0744L63.3766 18.7273C63.608 17.9817 63.9743 17.4483 64.4757 17.1269C64.977 16.7926 65.6198 16.6255 66.404 16.6255H67.021V18.8623H66.1147C65.382 18.8623 64.7971 19.0873 64.36 19.5372C63.9358 19.9871 63.7237 20.6042 63.7237 21.3883V27.231H61.1976V16.7412ZM73.3847 27.4624C72.3306 27.4624 71.3922 27.2246 70.5695 26.7489C69.7467 26.2604 69.1104 25.5984 68.6605 24.7628C68.2105 23.9144 67.9856 22.9824 67.9856 21.9668C67.9856 20.9384 68.2105 20.0129 68.6605 19.1901C69.1104 18.3545 69.7339 17.6989 70.5309 17.2233C71.3279 16.7476 72.2149 16.5098 73.1919 16.5098C74.246 16.5098 75.1523 16.7412 75.9108 17.204C76.6821 17.6539 77.2734 18.271 77.6848 19.0551C78.0961 19.8393 78.3018 20.7006 78.3018 21.639C78.3018 22.0761 78.2568 22.4296 78.1668 22.6996H70.0681V20.7713H76.7399L75.5444 21.6776C75.6601 21.0991 75.628 20.5785 75.448 20.1157C75.2809 19.6401 74.9981 19.2673 74.5995 18.9973C74.201 18.7273 73.7318 18.5924 73.1919 18.5924C72.6648 18.5924 72.1892 18.7273 71.765 18.9973C71.3536 19.2673 71.0451 19.6593 70.8394 20.1735C70.6337 20.6877 70.5566 21.2919 70.608 21.9861C70.5566 22.6289 70.6402 23.1945 70.8587 23.683C71.0901 24.1715 71.4243 24.5571 71.8614 24.8399C72.3113 25.1099 72.8255 25.2449 73.404 25.2449C73.9568 25.2449 74.4389 25.1292 74.8502 24.8978C75.2616 24.6536 75.5894 24.3193 75.8336 23.8951L77.8776 24.8978C77.5562 25.6563 76.9906 26.2733 76.1807 26.7489C75.3709 27.2246 74.4389 27.4624 73.3847 27.4624ZM84.3625 27.4431C83.2569 27.4817 82.2799 27.2503 81.4315 26.7489C80.5831 26.2347 79.9917 25.5277 79.6575 24.6278L81.5279 23.6637C81.8236 24.2422 82.2157 24.6921 82.7041 25.0135C83.1926 25.322 83.7261 25.4699 84.3046 25.457C84.7674 25.4441 85.1273 25.3349 85.3844 25.1292C85.6544 24.9235 85.783 24.6471 85.7701 24.3C85.7572 24.0044 85.6351 23.7665 85.4037 23.5866C85.1723 23.3937 84.8767 23.2652 84.5167 23.2009L82.8006 22.9117C81.9264 22.6931 81.2515 22.3139 80.7759 21.774C80.3002 21.2212 80.0496 20.5785 80.0239 19.8457C80.011 19.2158 80.1588 18.6566 80.4674 18.1681C80.7759 17.6668 81.2194 17.2747 81.7979 16.9919C82.3763 16.6962 83.0384 16.5355 83.784 16.5098C84.7738 16.4841 85.6544 16.7027 86.4257 17.1654C87.197 17.6154 87.7562 18.2581 88.1033 19.0937L86.2329 20.0578C86.0272 19.5951 85.7058 19.2287 85.2687 18.9587C84.8445 18.6888 84.3625 18.5602 83.8225 18.5731C83.4112 18.5859 83.0834 18.6952 82.8391 18.9009C82.5949 19.0937 82.4792 19.3444 82.492 19.6529C82.5049 19.9357 82.6206 20.1671 82.8391 20.3471C83.0705 20.5271 83.379 20.662 83.7647 20.752L85.4423 21.0605C86.3164 21.2919 86.9913 21.6776 87.467 22.2175C87.9555 22.7446 88.2126 23.3809 88.2383 24.1265C88.2511 24.7564 88.1033 25.322 87.7948 25.8234C87.4863 26.3119 87.0299 26.6975 86.4257 26.9803C85.8344 27.2631 85.1466 27.4174 84.3625 27.4431ZM93.115 27.4624C92.3822 27.4624 91.7459 27.3403 91.206 27.096C90.6661 26.8518 90.2483 26.5047 89.9526 26.0548C89.657 25.592 89.5091 25.0585 89.5091 24.4543C89.5091 23.5673 89.8112 22.841 90.4154 22.2754C91.0196 21.6969 91.9259 21.3048 93.1343 21.0991L96.5666 20.5399V22.4682L93.6163 22.9695C93.115 23.0595 92.7422 23.2202 92.4979 23.4516C92.2537 23.683 92.1316 23.9851 92.1316 24.3579C92.1316 24.7178 92.2666 25.0071 92.5365 25.2256C92.8065 25.4313 93.1536 25.5341 93.5778 25.5341C94.092 25.5341 94.5548 25.4249 94.9661 25.2063C95.3775 24.9749 95.6924 24.66 95.911 24.2615C96.1424 23.863 96.2581 23.4259 96.2581 22.9502V20.2507C96.2581 19.8007 96.0781 19.4279 95.7182 19.1323C95.3711 18.8238 94.9083 18.6695 94.3298 18.6695C93.7899 18.6695 93.3142 18.8109 92.9029 19.0937C92.4915 19.3765 92.183 19.7622 91.9773 20.2507L89.9141 19.248C90.2226 18.4252 90.7882 17.7632 91.6109 17.2619C92.4337 16.7605 93.3721 16.5098 94.4262 16.5098C95.2747 16.5098 96.0267 16.6705 96.6823 16.9919C97.3508 17.3004 97.865 17.7375 98.2249 18.3031C98.5977 18.8687 98.7841 19.5179 98.7841 20.2507V27.231H96.393V25.4377L96.933 25.3991C96.5216 26.0805 95.9945 26.5947 95.3518 26.9418C94.7219 27.2889 93.9763 27.4624 93.115 27.4624ZM106.209 31.4732C105.027 31.4732 103.992 31.1968 103.105 30.644C102.218 30.0913 101.601 29.3457 101.254 28.4072L103.606 27.5202C103.761 28.0216 104.069 28.4201 104.532 28.7158C104.995 29.0114 105.554 29.1593 106.209 29.1593C106.724 29.1593 107.174 29.0629 107.559 28.87C107.958 28.6772 108.266 28.3944 108.485 28.0216C108.703 27.6488 108.813 27.2117 108.813 26.7104V24.3193L109.295 24.8978C108.935 25.5277 108.453 26.0033 107.848 26.3247C107.244 26.6461 106.557 26.8068 105.785 26.8068C104.821 26.8068 103.947 26.5818 103.163 26.1319C102.391 25.682 101.787 25.0649 101.35 24.2808C100.913 23.4966 100.695 22.616 100.695 21.639C100.695 20.6749 100.907 19.8007 101.331 19.0166C101.768 18.2324 102.366 17.6218 103.124 17.1847C103.896 16.7348 104.763 16.5098 105.727 16.5098C106.512 16.5098 107.199 16.6705 107.791 16.9919C108.382 17.3133 108.883 17.7889 109.295 18.4188L108.948 19.0551V16.7412H111.339V26.7104C111.339 27.6231 111.12 28.4394 110.683 29.1593C110.246 29.8792 109.635 30.4448 108.851 30.8561C108.08 31.2675 107.199 31.4732 106.209 31.4732ZM106.094 24.4736C106.621 24.4736 107.09 24.3579 107.501 24.1265C107.913 23.8822 108.234 23.548 108.466 23.1238C108.697 22.6996 108.813 22.2111 108.813 21.6583C108.813 21.1184 108.69 20.6363 108.446 20.2121C108.215 19.775 107.893 19.4344 107.482 19.1901C107.084 18.9459 106.621 18.8238 106.094 18.8238C105.567 18.8238 105.091 18.9459 104.667 19.1901C104.243 19.4344 103.908 19.775 103.664 20.2121C103.433 20.6492 103.317 21.1312 103.317 21.6583C103.317 22.1982 103.433 22.6803 103.664 23.1045C103.908 23.5287 104.243 23.863 104.667 24.1072C105.091 24.3515 105.567 24.4736 106.094 24.4736ZM118.654 27.4624C117.6 27.4624 116.661 27.2246 115.839 26.7489C115.016 26.2604 114.38 25.5984 113.93 24.7628C113.48 23.9144 113.255 22.9824 113.255 21.9668C113.255 20.9384 113.48 20.0129 113.93 19.1901C114.38 18.3545 115.003 17.6989 115.8 17.2233C116.597 16.7476 117.484 16.5098 118.461 16.5098C119.515 16.5098 120.421 16.7412 121.18 17.204C121.951 17.6539 122.543 18.271 122.954 19.0551C123.365 19.8393 123.571 20.7006 123.571 21.639C123.571 22.0761 123.526 22.4296 123.436 22.6996H115.337V20.7713H122.009L120.814 21.6776C120.929 21.0991 120.897 20.5785 120.717 20.1157C120.55 19.6401 120.267 19.2673 119.869 18.9973C119.47 18.7273 119.001 18.5924 118.461 18.5924C117.934 18.5924 117.458 18.7273 117.034 18.9973C116.623 19.2673 116.314 19.6593 116.109 20.1735C115.903 20.6877 115.826 21.2919 115.877 21.9861C115.826 22.6289 115.909 23.1945 116.128 23.683C116.359 24.1715 116.693 24.5571 117.131 24.8399C117.58 25.1099 118.095 25.2449 118.673 25.2449C119.226 25.2449 119.708 25.1292 120.119 24.8978C120.531 24.6536 120.859 24.3193 121.103 23.8951L123.147 24.8978C122.825 25.6563 122.26 26.2733 121.45 26.7489C120.64 27.2246 119.708 27.4624 118.654 27.4624Z" fill="black"/>
<defs>
<linearGradient id="paint0_linear_78_5" x1="27.3996" y1="9.71388" x2="27.3996" y2="28.9122" gradientUnits="userSpaceOnUse">
<stop stop-color="#CFD0D1"/>
<stop offset="1" stop-color="#D2D3D5"/>
</linearGradient>
<linearGradient id="paint1_linear_78_5" x1="10.864" y1="12.0766" x2="30.4986" y2="28.9122" gradientUnits="userSpaceOnUse">
<stop stop-color="#8B8B8B"/>
<stop offset="1" stop-color="#9A9999"/>
</linearGradient>
<linearGradient id="paint2_linear_78_5" x1="19.9879" y1="9.71388" x2="19.9879" y2="28.9122" gradientUnits="userSpaceOnUse">
<stop stop-color="#9A9B9D"/>
<stop offset="1" stop-color="#C8C8C8"/>
</linearGradient>
</defs>
</svg>
