<svg width="150" height="43" viewBox="0 0 150 43" fill="none" xmlns="http://www.w3.org/2000/svg">
  <rect x="0.5" width="42.2126" height="42.2126" rx="12" fill="url(#paint0_linear)" fill-opacity="0.3"/>
  <path fill-rule="evenodd" clip-rule="evenodd" d="M9.17895 24.569C8.69431 20.9221 9.85316 17.0986 12.6555 14.2963C15.7743 11.1775 20.1579 10.0943 24.1553 11.0468C24.6399 14.6937 23.481 18.5172 20.6787 21.3195C17.5599 24.4383 13.1763 25.5215 9.17895 24.569Z" fill="url(#paint1_linear)"/>
  <path fill-rule="evenodd" clip-rule="evenodd" d="M16.2949 31.7413C15.4187 27.7941 16.516 23.497 19.5869 20.4262C22.6577 17.3553 26.9548 16.258 30.902 17.1342C31.7783 21.0814 30.6809 25.3785 27.6101 28.4494C24.5392 31.5202 20.2421 32.6176 16.2949 31.7413Z" fill="url(#paint2_linear)"/>
  <g filter="url(#filter0_b)">
  <path fill-rule="evenodd" clip-rule="evenodd" d="M23.8554 31.0213C24.9344 27.4814 23.9597 23.3306 20.9975 20.3684C18.0353 17.4062 13.8844 16.4315 10.3445 17.5106C10.4439 17.3997 10.5467 17.291 10.6531 17.1846C14.0836 13.7542 19.8929 14.0017 23.6285 17.7373C27.3642 21.473 27.6117 27.2823 24.1813 30.7127C24.0749 30.8191 23.9662 30.922 23.8554 31.0213Z" fill="url(#paint3_linear)" fill-opacity="0.5"/>
  </g>
  <path fill-rule="evenodd" clip-rule="evenodd" d="M23.8555 31.0102C25.3103 30.4976 26.6768 29.6589 27.8412 28.4945C31.9914 24.3443 33.439 16.191 29.3031 12.0551C25.1671 7.91916 17.0139 9.36673 12.8636 13.5169C11.6992 14.6813 10.8606 16.0478 10.348 17.5026C14.1125 14.1287 19.8955 14.2439 23.5049 17.8533C27.1143 21.4627 27.2295 27.2457 23.8555 31.0102Z" fill="url(#paint4_linear)"/>
  <path d="M58.3446 29.6063V12.8063H64.5606C65.9046 12.8063 67.0166 13.0303 67.8966 13.4783C68.7766 13.9263 69.4326 14.5423 69.8646 15.3263C70.2966 16.1103 70.5126 16.9903 70.5126 17.9663C70.5126 18.8943 70.3046 19.7503 69.8886 20.5343C69.4726 21.3023 68.8246 21.9263 67.9446 22.4063C67.0646 22.8703 65.9366 23.1023 64.5606 23.1023H61.4166V29.6063H58.3446ZM61.4166 20.6063H64.3686C65.4406 20.6063 66.2086 20.3743 66.6726 19.9103C67.1526 19.4303 67.3926 18.7823 67.3926 17.9663C67.3926 17.1343 67.1526 16.4863 66.6726 16.0223C66.2086 15.5423 65.4406 15.3023 64.3686 15.3023H61.4166V20.6063ZM72.8507 29.6063V17.7023H75.5867L75.8747 19.9343C76.3067 19.1663 76.8907 18.5583 77.6267 18.1103C78.3787 17.6463 79.2587 17.4143 80.2667 17.4143V20.6543H79.4027C78.7307 20.6543 78.1307 20.7583 77.6027 20.9663C77.0747 21.1743 76.6587 21.5343 76.3547 22.0463C76.0667 22.5583 75.9227 23.2703 75.9227 24.1823V29.6063H72.8507ZM87.9394 29.8943C86.7394 29.8943 85.6754 29.6383 84.7474 29.1263C83.8194 28.6143 83.0914 27.8943 82.5634 26.9663C82.0354 26.0383 81.7714 24.9663 81.7714 23.7503C81.7714 22.5183 82.0274 21.4223 82.5394 20.4623C83.0674 19.5023 83.7874 18.7583 84.6994 18.2303C85.6274 17.6863 86.7154 17.4143 87.9634 17.4143C89.1314 17.4143 90.1634 17.6703 91.0594 18.1823C91.9554 18.6943 92.6514 19.3983 93.1474 20.2943C93.6594 21.1743 93.9154 22.1583 93.9154 23.2463C93.9154 23.4223 93.9074 23.6063 93.8914 23.7983C93.8914 23.9903 93.8834 24.1903 93.8674 24.3983H84.8194C84.8834 25.3263 85.2034 26.0543 85.7794 26.5823C86.3714 27.1103 87.0834 27.3743 87.9154 27.3743C88.5394 27.3743 89.0594 27.2383 89.4754 26.9663C89.9074 26.6783 90.2274 26.3103 90.4354 25.8623H93.5554C93.3314 26.6143 92.9554 27.3023 92.4274 27.9263C91.9154 28.5343 91.2754 29.0143 90.5074 29.3663C89.7554 29.7183 88.8994 29.8943 87.9394 29.8943ZM87.9634 19.9103C87.2114 19.9103 86.5474 20.1263 85.9714 20.5583C85.3954 20.9743 85.0274 21.6143 84.8674 22.4783H90.7954C90.7474 21.6943 90.4594 21.0703 89.9314 20.6063C89.4034 20.1423 88.7474 19.9103 87.9634 19.9103ZM101.419 29.8943C100.363 29.8943 99.4351 29.7263 98.6351 29.3903C97.8351 29.0383 97.1951 28.5583 96.7151 27.9503C96.2351 27.3423 95.9471 26.6383 95.8511 25.8383H98.9471C99.0431 26.3023 99.2991 26.7023 99.7151 27.0383C100.147 27.3583 100.699 27.5183 101.371 27.5183C102.043 27.5183 102.531 27.3823 102.835 27.1103C103.155 26.8383 103.315 26.5263 103.315 26.1743C103.315 25.6623 103.091 25.3183 102.643 25.1423C102.195 24.9503 101.571 24.7663 100.771 24.5903C100.259 24.4783 99.7391 24.3423 99.2111 24.1823C98.6831 24.0223 98.1951 23.8223 97.7471 23.5823C97.3151 23.3263 96.9631 23.0063 96.6911 22.6223C96.4191 22.2223 96.2831 21.7343 96.2831 21.1583C96.2831 20.1023 96.6991 19.2143 97.5311 18.4943C98.3791 17.7743 99.5631 17.4143 101.083 17.4143C102.491 17.4143 103.611 17.7423 104.443 18.3983C105.291 19.0543 105.795 19.9583 105.955 21.1103H103.051C102.875 20.2303 102.211 19.7903 101.059 19.7903C100.483 19.7903 100.035 19.9023 99.7151 20.1263C99.4111 20.3503 99.2591 20.6303 99.2591 20.9663C99.2591 21.3183 99.4911 21.5983 99.9551 21.8063C100.419 22.0143 101.035 22.2063 101.803 22.3823C102.635 22.5743 103.395 22.7903 104.083 23.0303C104.787 23.2543 105.347 23.5983 105.763 24.0623C106.179 24.5103 106.387 25.1583 106.387 26.0063C106.403 26.7423 106.211 27.4063 105.811 27.9983C105.411 28.5903 104.835 29.0543 104.083 29.3903C103.331 29.7263 102.443 29.8943 101.419 29.8943ZM113.213 29.8943C112.189 29.8943 111.349 29.7343 110.693 29.4143C110.037 29.0783 109.549 28.6383 109.229 28.0943C108.909 27.5503 108.749 26.9503 108.749 26.2943C108.749 25.1903 109.181 24.2943 110.045 23.6063C110.909 22.9183 112.205 22.5743 113.933 22.5743H116.957V22.2863C116.957 21.4703 116.725 20.8703 116.261 20.4863C115.797 20.1023 115.221 19.9103 114.533 19.9103C113.909 19.9103 113.365 20.0623 112.901 20.3663C112.437 20.6543 112.149 21.0863 112.037 21.6623H109.037C109.117 20.7983 109.405 20.0463 109.901 19.4063C110.413 18.7663 111.069 18.2783 111.869 17.9423C112.669 17.5903 113.565 17.4143 114.557 17.4143C116.253 17.4143 117.589 17.8383 118.565 18.6863C119.541 19.5343 120.029 20.7343 120.029 22.2863V29.6063H117.413L117.125 27.6863C116.773 28.3263 116.277 28.8543 115.637 29.2703C115.013 29.6863 114.205 29.8943 113.213 29.8943ZM113.909 27.4943C114.789 27.4943 115.469 27.2063 115.949 26.6303C116.445 26.0543 116.757 25.3423 116.885 24.4943H114.269C113.453 24.4943 112.869 24.6463 112.517 24.9503C112.165 25.2383 111.989 25.5983 111.989 26.0303C111.989 26.4943 112.165 26.8543 112.517 27.1103C112.869 27.3663 113.333 27.4943 113.909 27.4943ZM128 26.0543C127.424 26.0543 126.888 25.9903 126.392 25.8623L125.504 26.7503C125.776 26.8943 126.144 27.0143 126.608 27.1103C127.072 27.2063 127.824 27.3023 128.864 27.3983C130.448 27.5423 131.6 27.9183 132.32 28.5263C133.04 29.1343 133.4 29.9743 133.4 31.0463C133.4 31.7503 133.208 32.4143 132.824 33.0383C132.44 33.6783 131.848 34.1903 131.048 34.5743C130.248 34.9743 129.224 35.1743 127.976 35.1743C126.28 35.1743 124.912 34.8543 123.872 34.2143C122.832 33.5903 122.312 32.6463 122.312 31.3823C122.312 30.3103 122.832 29.3823 123.872 28.5983C123.552 28.4543 123.272 28.3023 123.032 28.1423C122.808 27.9823 122.608 27.8143 122.432 27.6383V27.0863L124.52 24.8783C123.592 24.0623 123.128 23.0143 123.128 21.7343C123.128 20.9343 123.32 20.2063 123.704 19.5503C124.104 18.8943 124.664 18.3743 125.384 17.9903C126.104 17.6063 126.976 17.4143 128 17.4143C128.672 17.4143 129.296 17.5103 129.872 17.7023H134.384V19.5743L132.344 19.7183C132.664 20.3263 132.824 20.9983 132.824 21.7343C132.824 22.5343 132.632 23.2623 132.248 23.9183C131.864 24.5743 131.304 25.0943 130.568 25.4783C129.848 25.8623 128.992 26.0543 128 26.0543ZM128 23.7023C128.624 23.7023 129.136 23.5343 129.536 23.1983C129.952 22.8623 130.16 22.3823 130.16 21.7583C130.16 21.1343 129.952 20.6543 129.536 20.3183C129.136 19.9823 128.624 19.8143 128 19.8143C127.344 19.8143 126.816 19.9823 126.416 20.3183C126.016 20.6543 125.816 21.1343 125.816 21.7583C125.816 22.3823 126.016 22.8623 126.416 23.1983C126.816 23.5343 127.344 23.7023 128 23.7023ZM125.12 31.0703C125.12 31.6623 125.392 32.1023 125.936 32.3903C126.496 32.6943 127.176 32.8463 127.976 32.8463C128.744 32.8463 129.368 32.6863 129.848 32.3663C130.328 32.0623 130.568 31.6463 130.568 31.1183C130.568 30.6863 130.408 30.3263 130.088 30.0383C129.784 29.7503 129.168 29.5743 128.24 29.5103C127.584 29.4623 126.976 29.3903 126.416 29.2943C125.952 29.5503 125.616 29.8303 125.408 30.1343C125.216 30.4383 125.12 30.7503 125.12 31.0703ZM141.939 29.8943C140.739 29.8943 139.675 29.6383 138.747 29.1263C137.819 28.6143 137.091 27.8943 136.563 26.9663C136.035 26.0383 135.771 24.9663 135.771 23.7503C135.771 22.5183 136.027 21.4223 136.539 20.4623C137.067 19.5023 137.787 18.7583 138.699 18.2303C139.627 17.6863 140.715 17.4143 141.963 17.4143C143.131 17.4143 144.163 17.6703 145.059 18.1823C145.955 18.6943 146.651 19.3983 147.147 20.2943C147.659 21.1743 147.915 22.1583 147.915 23.2463C147.915 23.4223 147.907 23.6063 147.891 23.7983C147.891 23.9903 147.883 24.1903 147.867 24.3983H138.819C138.883 25.3263 139.203 26.0543 139.779 26.5823C140.371 27.1103 141.083 27.3743 141.915 27.3743C142.539 27.3743 143.059 27.2383 143.475 26.9663C143.907 26.6783 144.227 26.3103 144.435 25.8623H147.555C147.331 26.6143 146.955 27.3023 146.427 27.9263C145.915 28.5343 145.275 29.0143 144.507 29.3663C143.755 29.7183 142.899 29.8943 141.939 29.8943ZM141.963 19.9103C141.211 19.9103 140.547 20.1263 139.971 20.5583C139.395 20.9743 139.027 21.6143 138.867 22.4783H144.795C144.747 21.6943 144.459 21.0703 143.931 20.6063C143.403 20.1423 142.747 19.9103 141.963 19.9103Z" fill="white"/>
  <defs>
  <filter id="filter0_b" x="6.78563" y="7.42302" width="27.1572" height="27.1572" filterUnits="userSpaceOnUse" color-interpolation-filters="sRGB">
  <feFlood flood-opacity="0" result="BackgroundImageFix"/>
  <feGaussianBlur in="BackgroundImage" stdDeviation="1.77512"/>
  <feComposite in2="SourceAlpha" operator="in" result="effect1_backgroundBlur"/>
  <feBlend mode="normal" in="SourceGraphic" in2="effect1_backgroundBlur" result="shape"/>
  </filter>
  <linearGradient id="paint0_linear" x1="21.5769" y1="-0.205394" x2="21.5769" y2="42.432" gradientUnits="userSpaceOnUse">
  <stop stop-color="#799FFF" stop-opacity="0.5"/>
  <stop offset="1" stop-color="#FF79F2"/>
  </linearGradient>
  <linearGradient id="paint1_linear" x1="22.8529" y1="10.9748" x2="10.7069" y2="25.6193" gradientUnits="userSpaceOnUse">
  <stop stop-color="#BE6CFF"/>
  <stop offset="0.546875" stop-color="#68AEFF"/>
  <stop offset="1" stop-color="#68DBFF"/>
  </linearGradient>
  <linearGradient id="paint2_linear" x1="29.7842" y1="17.1046" x2="17.6382" y2="31.7491" gradientUnits="userSpaceOnUse">
  <stop stop-color="#68FFF6"/>
  <stop offset="0.479167" stop-color="#40D2F2"/>
  <stop offset="1" stop-color="#3DCBEB"/>
  </linearGradient>
  <linearGradient id="paint3_linear" x1="13.7324" y1="14.1054" x2="27.2605" y2="27.6335" gradientUnits="userSpaceOnUse">
  <stop stop-color="#91FFE4"/>
  <stop offset="1" stop-color="#FDC2FB"/>
  </linearGradient>
  <linearGradient id="paint4_linear" x1="29.352" y1="11.9853" x2="17.0279" y2="24.3095" gradientUnits="userSpaceOnUse">
  <stop stop-color="#799FFF"/>
  <stop offset="1" stop-color="#FF79F2"/>
  </linearGradient>
  </defs>
  </svg>
