<svg width="21" height="21" viewBox="0 0 21 21" fill="none" xmlns="http://www.w3.org/2000/svg">
  <g clip-path="url(#clip0)">
  <path d="M10.5002 2.10629C8.90892 2.10629 7.38279 2.73843 6.25757 3.86365C5.13236 4.98887 4.50021 6.51499 4.50021 8.10629V11.6923L3.79321 12.3993C3.6534 12.5391 3.5582 12.7173 3.51963 12.9113C3.48106 13.1052 3.50087 13.3062 3.57654 13.4889C3.65221 13.6716 3.78035 13.8278 3.94476 13.9377C4.10917 14.0476 4.30246 14.1063 4.50021 14.1063H16.5002C16.698 14.1063 16.8913 14.0476 17.0557 13.9377C17.2201 13.8278 17.3482 13.6716 17.4239 13.4889C17.4996 13.3062 17.5194 13.1052 17.4808 12.9113C17.4422 12.7173 17.347 12.5391 17.2072 12.3993L16.5002 11.6923V8.10629C16.5002 6.51499 15.8681 4.98887 14.7429 3.86365C13.6176 2.73843 12.0915 2.10629 10.5002 2.10629ZM10.5002 18.1063C9.70456 18.1063 8.9415 17.7902 8.37889 17.2276C7.81628 16.665 7.50021 15.9019 7.50021 15.1063H13.5002C13.5002 15.9019 13.1841 16.665 12.6215 17.2276C12.0589 17.7902 11.2959 18.1063 10.5002 18.1063Z" fill="#E4E7F1"/>
  <circle cx="14.4728" cy="3.10629" r="2.5" fill="#547CF5" stroke="#13141C"/>
  </g>
  <defs>
  <clipPath id="clip0">
  <rect width="19.9996" height="20" fill="white" transform="translate(0.500427 0.106293)"/>
  </clipPath>
  </defs>
  </svg>
