<svg width="18" height="20" viewBox="0 0 18 20" fill="none" xmlns="http://www.w3.org/2000/svg">
  <g clip-path="url(#clip0)">
  <path d="M15.7529 6.23639C15.7637 6.40516 15.7637 6.57397 15.7637 6.74275C15.7637 11.8906 12.2581 17.822 5.85068 17.822C3.87669 17.822 2.04294 17.1831 0.500427 16.074C0.780894 16.1101 1.05054 16.1222 1.34179 16.1222C2.97057 16.1222 4.46996 15.5074 5.6673 14.4585C4.13557 14.4223 2.85194 13.3011 2.40967 11.758C2.62543 11.7941 2.84115 11.8182 3.06769 11.8182C3.3805 11.8182 3.69334 11.77 3.98456 11.6856C2.38812 11.3239 1.19075 9.7567 1.19075 7.86393V7.81573C1.65457 8.10507 2.19395 8.2859 2.76561 8.30999C1.82716 7.61073 1.21234 6.41722 1.21234 5.06696C1.21234 4.34362 1.38489 3.68055 1.68694 3.10187C3.40205 5.46481 5.9801 7.00793 8.87094 7.17674C8.81701 6.8874 8.78464 6.58603 8.78464 6.28463C8.78464 4.13867 10.3379 2.39059 12.2688 2.39059C13.2719 2.39059 14.178 2.86077 14.8145 3.62029C15.6019 3.45151 16.3569 3.12599 17.0258 2.67994C16.7668 3.58414 16.2167 4.34366 15.494 4.82586C16.1952 4.74151 16.8747 4.52446 17.5004 4.22309C17.0258 4.99463 16.4325 5.68179 15.7529 6.23639Z" fill="#ACB3C9"/>
  </g>
  <defs>
  <clipPath id="clip0">
  <rect width="17" height="19" fill="white" transform="translate(0.500427 0.606293)"/>
  </clipPath>
  </defs>
  </svg>
