<svg width="285" height="603" viewBox="0 0 285 603" fill="none" xmlns="http://www.w3.org/2000/svg">
  <path d="M67.69 515.264V496.378H72.25V510.096H80.078V498.088H84.638V510.096H96V515.264H67.69ZM75.328 494.567V489.893H78.216C77.1013 489.386 76.3033 488.664 75.822 487.727C75.3407 486.789 75.1 485.649 75.1 484.307V483.091H79.508V484.877C79.508 486.295 79.9513 487.435 80.838 488.297C81.7247 489.158 82.9407 489.589 84.486 489.589H96V494.567H75.328ZM96.456 470.55C96.456 472.627 95.9747 474.477 95.012 476.098C94.0493 477.694 92.7447 478.948 91.098 479.86C89.4513 480.747 87.6273 481.19 85.626 481.19C83.5993 481.19 81.7753 480.747 80.154 479.86C78.5073 478.948 77.2153 477.719 76.278 476.174C75.3407 474.603 74.872 472.855 74.872 470.93C74.872 468.853 75.328 467.054 76.24 465.534C77.1267 464.014 78.3427 462.861 79.888 462.076C81.4333 461.265 83.1307 460.86 84.98 460.86C85.8413 460.86 86.538 460.949 87.07 461.126V476.022C88.59 475.87 89.806 475.287 90.718 474.274C91.63 473.261 92.086 472.007 92.086 470.512C92.086 469.397 91.858 468.447 91.402 467.662C90.9207 466.851 90.262 466.205 89.426 465.724L91.402 461.696C92.922 462.329 94.1507 463.444 95.088 465.04C96 466.636 96.456 468.473 96.456 470.55ZM83.27 466.18C82.0033 466.307 80.9773 466.801 80.192 467.662C79.3813 468.523 78.976 469.613 78.976 470.93C78.976 472.197 79.356 473.273 80.116 474.16C80.8507 475.047 81.902 475.629 83.27 475.908V466.18ZM96.456 447.282C96.456 449.36 95.9747 451.209 95.012 452.83C94.0493 454.426 92.7447 455.68 91.098 456.592C89.4513 457.479 87.6273 457.922 85.626 457.922C83.5993 457.922 81.7753 457.479 80.154 456.592C78.5073 455.68 77.2153 454.452 76.278 452.906C75.3407 451.336 74.872 449.588 74.872 447.662C74.872 445.585 75.328 443.786 76.24 442.266C77.1267 440.746 78.3427 439.594 79.888 438.808C81.4333 437.998 83.1307 437.592 84.98 437.592C85.8413 437.592 86.538 437.681 87.07 437.858V452.754C88.59 452.602 89.806 452.02 90.718 451.006C91.63 449.993 92.086 448.739 92.086 447.244C92.086 446.13 91.858 445.18 91.402 444.394C90.9207 443.584 90.262 442.938 89.426 442.456L91.402 438.428C92.922 439.062 94.1507 440.176 95.088 441.772C96 443.368 96.456 445.205 96.456 447.282ZM83.27 442.912C82.0033 443.039 80.9773 443.533 80.192 444.394C79.3813 445.256 78.976 446.345 78.976 447.662C78.976 448.929 79.356 450.006 80.116 450.892C80.8507 451.779 81.902 452.362 83.27 452.64V442.912ZM96.456 416.539C96.456 418.768 96.038 420.706 95.202 422.353C94.366 423.974 93.3147 425.241 92.048 426.153C90.756 427.065 89.4133 427.647 88.02 427.901L86.728 423.037C88.2733 422.657 89.4767 421.897 90.338 420.757C91.1993 419.617 91.63 418.185 91.63 416.463C91.63 415.145 91.3007 414.081 90.642 413.271C89.9833 412.435 89.198 412.017 88.286 412.017C87.45 412.017 86.728 412.321 86.12 412.929C85.4867 413.511 85.0687 414.309 84.866 415.323L84.03 419.579C83.5993 421.833 82.624 423.607 81.104 424.899C79.584 426.191 77.7347 426.837 75.556 426.837C74.036 426.837 72.6427 426.406 71.376 425.545C70.084 424.658 69.0707 423.493 68.336 422.049C67.6013 420.579 67.234 419.021 67.234 417.375C67.234 415.272 67.5887 413.486 68.298 412.017C69.0073 410.547 69.9067 409.407 70.996 408.597C72.06 407.761 73.1873 407.203 74.378 406.925L75.898 411.751C74.53 412.283 73.5547 413.005 72.972 413.917C72.364 414.829 72.06 415.981 72.06 417.375C72.06 418.16 72.2247 418.869 72.554 419.503C72.8833 420.111 73.314 420.592 73.846 420.947C74.3527 421.276 74.872 421.441 75.404 421.441C76.24 421.441 76.9747 421.162 77.608 420.605C78.216 420.047 78.6087 419.275 78.786 418.287L79.66 414.259C80.192 411.801 81.2053 409.901 82.7 408.559C84.1693 407.216 85.93 406.545 87.982 406.545C89.4513 406.545 90.832 406.95 92.124 407.761C93.416 408.571 94.4673 409.737 95.278 411.257C96.0633 412.751 96.456 414.512 96.456 416.539ZM75.328 402.461V397.787H77.76C76.848 397.027 76.1387 396.09 75.632 394.975C75.1253 393.835 74.872 392.556 74.872 391.137C74.872 389.212 75.3533 387.451 76.316 385.855C77.2533 384.259 78.5453 383.005 80.192 382.093C81.8387 381.181 83.6627 380.725 85.664 380.725C87.6653 380.725 89.4893 381.181 91.136 382.093C92.7827 383.005 94.0873 384.259 95.05 385.855C95.9873 387.426 96.456 389.199 96.456 391.175C96.456 392.442 96.2533 393.62 95.848 394.709C95.4173 395.799 94.8093 396.723 94.024 397.483H103.6V402.461H75.328ZM85.664 397.483C86.8547 397.483 87.9313 397.243 88.894 396.761C89.8313 396.255 90.566 395.571 91.098 394.709C91.63 393.823 91.896 392.835 91.896 391.745C91.896 390.048 91.3133 388.655 90.148 387.565C88.9573 386.451 87.4627 385.893 85.664 385.893C84.4987 385.893 83.4473 386.147 82.51 386.653C81.5473 387.16 80.8 387.857 80.268 388.743C79.7107 389.63 79.432 390.631 79.432 391.745C79.432 392.835 79.698 393.823 80.23 394.709C80.762 395.571 81.5093 396.255 82.472 396.761C83.4093 397.243 84.4733 397.483 85.664 397.483ZM96.456 367.126C96.456 369.203 95.9747 371.053 95.012 372.674C94.0493 374.27 92.7447 375.524 91.098 376.436C89.4513 377.323 87.6273 377.766 85.626 377.766C83.5993 377.766 81.7753 377.323 80.154 376.436C78.5073 375.524 77.2153 374.295 76.278 372.75C75.3407 371.179 74.872 369.431 74.872 367.506C74.872 365.429 75.328 363.63 76.24 362.11C77.1267 360.59 78.3427 359.437 79.888 358.652C81.4333 357.841 83.1307 357.436 84.98 357.436C85.8413 357.436 86.538 357.525 87.07 357.702V372.598C88.59 372.446 89.806 371.863 90.718 370.85C91.63 369.837 92.086 368.583 92.086 367.088C92.086 365.973 91.858 365.023 91.402 364.238C90.9207 363.427 90.262 362.781 89.426 362.3L91.402 358.272C92.922 358.905 94.1507 360.02 95.088 361.616C96 363.212 96.456 365.049 96.456 367.126ZM83.27 362.756C82.0033 362.883 80.9773 363.377 80.192 364.238C79.3813 365.099 78.976 366.189 78.976 367.506C78.976 368.773 79.356 369.849 80.116 370.736C80.8507 371.623 81.902 372.205 83.27 372.484V362.756ZM96.456 343.858C96.456 345.936 95.9747 347.785 95.012 349.406C94.0493 351.002 92.7447 352.256 91.098 353.168C89.4513 354.055 87.6273 354.498 85.626 354.498C83.5993 354.498 81.7753 354.055 80.154 353.168C78.5073 352.256 77.2153 351.028 76.278 349.482C75.3407 347.912 74.872 346.164 74.872 344.238C74.872 342.161 75.328 340.362 76.24 338.842C77.1267 337.322 78.3427 336.17 79.888 335.384C81.4333 334.574 83.1307 334.168 84.98 334.168C85.8413 334.168 86.538 334.257 87.07 334.434L87.07 349.33C88.59 349.178 89.806 348.596 90.718 347.582C91.63 346.569 92.086 345.315 92.086 343.82C92.086 342.706 91.858 341.756 91.402 340.97C90.9207 340.16 90.262 339.514 89.426 339.032L91.402 335.004C92.922 335.638 94.1507 336.752 95.088 338.348C96 339.944 96.456 341.781 96.456 343.858ZM83.27 339.488C82.0033 339.615 80.9773 340.109 80.192 340.97C79.3813 341.832 78.976 342.921 78.976 344.238C78.976 345.505 79.356 346.582 80.116 347.468C80.8507 348.355 81.902 348.938 83.27 349.216V339.488ZM96.456 320.439C96.456 322.466 95.9873 324.315 95.05 325.987C94.0873 327.634 92.7827 328.926 91.136 329.863C89.4893 330.8 87.6527 331.269 85.626 331.269C83.5993 331.269 81.7753 330.8 80.154 329.863C78.5073 328.926 77.2153 327.634 76.278 325.987C75.3407 324.34 74.872 322.491 74.872 320.439C74.872 318.235 75.442 316.272 76.582 314.549C77.6967 312.826 79.166 311.648 80.99 311.015L82.89 315.347C81.826 315.752 80.99 316.411 80.382 317.323C79.7487 318.235 79.432 319.274 79.432 320.439C79.432 321.503 79.698 322.466 80.23 323.327C80.762 324.188 81.5093 324.872 82.472 325.379C83.4093 325.86 84.4733 326.101 85.664 326.101C86.8547 326.101 87.9313 325.86 88.894 325.379C89.8313 324.872 90.566 324.188 91.098 323.327C91.63 322.466 91.896 321.503 91.896 320.439C91.896 319.248 91.592 318.21 90.984 317.323C90.3507 316.411 89.4893 315.752 88.4 315.347L90.376 311.015C92.1747 311.623 93.644 312.801 94.784 314.549C95.8987 316.272 96.456 318.235 96.456 320.439ZM67.234 307.276V302.298H77.38C76.5693 301.715 75.9487 300.942 75.518 299.98C75.0873 299.017 74.872 297.94 74.872 296.75C74.872 295.255 75.2013 293.912 75.86 292.722C76.5187 291.531 77.4433 290.606 78.634 289.948C79.8247 289.289 81.18 288.96 82.7 288.96H96V293.938H83.878C82.5353 293.938 81.4587 294.33 80.648 295.116C79.8373 295.876 79.432 296.876 79.432 298.118C79.432 299.334 79.8373 300.334 80.648 301.12C81.4587 301.905 82.5353 302.298 83.878 302.298H96V307.276H67.234Z" fill="#9CA3AF" />
  <path d="M83.498 276.97V260.82H87.868V276.97H83.498ZM96.456 234.739C96.456 237.399 95.8227 239.806 94.556 241.959C93.2893 244.113 91.5413 245.81 89.312 247.051C87.0827 248.267 84.5873 248.875 81.826 248.875C79.0647 248.875 76.5693 248.267 74.34 247.051C72.1107 245.81 70.3753 244.125 69.134 241.997C67.8673 239.844 67.234 237.425 67.234 234.739C67.234 232.789 67.576 231.003 68.26 229.381C68.9187 227.76 69.818 226.392 70.958 225.277C72.0727 224.137 73.314 223.314 74.682 222.807L76.848 227.443C75.3787 228.001 74.2007 228.925 73.314 230.217C72.402 231.509 71.946 233.017 71.946 234.739C71.946 236.487 72.364 238.045 73.2 239.413C74.0107 240.781 75.1633 241.845 76.658 242.605C78.1527 243.34 79.8753 243.707 81.826 243.707C83.7767 243.707 85.512 243.34 87.032 242.605C88.5267 241.845 89.692 240.781 90.528 239.413C91.3387 238.045 91.744 236.487 91.744 234.739C91.744 233.017 91.3007 231.509 90.414 230.217C89.502 228.925 88.3113 228.001 86.842 227.443L89.008 222.807C90.376 223.314 91.63 224.137 92.77 225.277C93.8847 226.392 94.784 227.76 95.468 229.381C96.1267 231.003 96.456 232.789 96.456 234.739ZM96.456 209.293C96.456 211.294 95.9873 213.131 95.05 214.803C94.1127 216.475 92.8207 217.805 91.174 218.793C89.5273 219.755 87.6907 220.237 85.664 220.237C83.6373 220.237 81.8007 219.755 80.154 218.793C78.5073 217.83 77.2153 216.513 76.278 214.841C75.3407 213.169 74.872 211.319 74.872 209.293C74.872 207.291 75.3407 205.467 76.278 203.821C77.2153 202.149 78.5073 200.831 80.154 199.869C81.8007 198.881 83.6373 198.387 85.664 198.387C87.716 198.387 89.5653 198.881 91.212 199.869C92.8587 200.831 94.1507 202.149 95.088 203.821C96 205.493 96.456 207.317 96.456 209.293ZM85.664 215.069C87.4627 215.069 88.9573 214.537 90.148 213.473C91.3133 212.383 91.896 210.99 91.896 209.293C91.896 208.203 91.63 207.228 91.098 206.367C90.566 205.505 89.8313 204.834 88.894 204.353C87.9313 203.846 86.8547 203.593 85.664 203.593C84.4987 203.593 83.4473 203.846 82.51 204.353C81.5473 204.834 80.8 205.505 80.268 206.367C79.7107 207.228 79.432 208.203 79.432 209.293C79.432 210.407 79.7107 211.408 80.268 212.295C80.8 213.156 81.5347 213.84 82.472 214.347C83.4093 214.828 84.4733 215.069 85.664 215.069ZM75.328 194.612V189.938H77.874C76.9113 189.406 76.1767 188.633 75.67 187.62C75.138 186.581 74.872 185.403 74.872 184.086C74.872 182.591 75.2013 181.248 75.86 180.058C76.5187 178.867 77.4433 177.942 78.634 177.284C79.8247 176.625 81.18 176.296 82.7 176.296H96V181.274H83.878C82.5353 181.274 81.4587 181.666 80.648 182.452C79.8373 183.212 79.432 184.212 79.432 185.454C79.432 186.695 79.8373 187.708 80.648 188.494C81.4587 189.254 82.5353 189.634 83.878 189.634H96V194.612H75.328ZM75.328 172.086V167.412H77.874C76.9113 166.88 76.1767 166.108 75.67 165.094C75.138 164.056 74.872 162.878 74.872 161.56C74.872 160.066 75.2013 158.723 75.86 157.532C76.5187 156.342 77.4433 155.417 78.634 154.758C79.8247 154.1 81.18 153.77 82.7 153.77H96V158.748H83.878C82.5353 158.748 81.4587 159.141 80.648 159.926C79.8373 160.686 79.432 161.687 79.432 162.928C79.432 164.17 79.8373 165.183 80.648 165.968C81.4587 166.728 82.5353 167.108 83.878 167.108H96V172.086H75.328ZM96.456 139.757C96.456 141.834 95.9747 143.684 95.012 145.305C94.0493 146.901 92.7447 148.155 91.098 149.067C89.4513 149.954 87.6273 150.397 85.626 150.397C83.5993 150.397 81.7753 149.954 80.154 149.067C78.5073 148.155 77.2153 146.926 76.278 145.381C75.3407 143.81 74.872 142.062 74.872 140.137C74.872 138.06 75.328 136.261 76.24 134.741C77.1267 133.221 78.3427 132.068 79.888 131.283C81.4333 130.472 83.1307 130.067 84.98 130.067C85.8413 130.067 86.538 130.156 87.07 130.333V145.229C88.59 145.077 89.806 144.494 90.718 143.481C91.63 142.468 92.086 141.214 92.086 139.719C92.086 138.604 91.858 137.654 91.402 136.869C90.9207 136.058 90.262 135.412 89.426 134.931L91.402 130.903C92.922 131.536 94.1507 132.651 95.088 134.247C96 135.843 96.456 137.68 96.456 139.757ZM83.27 135.387C82.0033 135.514 80.9773 136.008 80.192 136.869C79.3813 137.73 78.976 138.82 78.976 140.137C78.976 141.404 79.356 142.48 80.116 143.367C80.8507 144.254 81.902 144.836 83.27 145.115V135.387ZM96.456 116.337C96.456 118.364 95.9873 120.213 95.05 121.885C94.0873 123.532 92.7827 124.824 91.136 125.761C89.4893 126.699 87.6527 127.167 85.626 127.167C83.5993 127.167 81.7753 126.699 80.154 125.761C78.5073 124.824 77.2153 123.532 76.278 121.885C75.3407 120.239 74.872 118.389 74.872 116.337C74.872 114.133 75.442 112.17 76.582 110.447C77.6967 108.725 79.166 107.547 80.99 106.913L82.89 111.245C81.826 111.651 80.99 112.309 80.382 113.221C79.7487 114.133 79.432 115.172 79.432 116.337C79.432 117.401 79.698 118.364 80.23 119.225C80.762 120.087 81.5093 120.771 82.472 121.277C83.4093 121.759 84.4733 121.999 85.664 121.999C86.8547 121.999 87.9313 121.759 88.894 121.277C89.8313 120.771 90.566 120.087 91.098 119.225C91.63 118.364 91.896 117.401 91.896 116.337C91.896 115.147 91.592 114.108 90.984 113.221C90.3507 112.309 89.4893 111.651 88.4 111.245L90.376 106.913C92.1747 107.521 93.644 108.699 94.784 110.447C95.8987 112.17 96.456 114.133 96.456 116.337ZM96.228 93.7502C96.228 96.0809 95.5947 97.8922 94.328 99.1842C93.036 100.451 91.2247 101.084 88.894 101.084H79.774V104.656H75.328V104.276C75.328 103.263 75.062 102.478 74.53 101.92C73.998 101.363 73.2253 101.084 72.212 101.084H70.616V96.1062H75.328V91.3562H79.774V96.1062H88.628C90.7813 96.1062 91.858 94.9409 91.858 92.6102C91.858 92.2049 91.82 91.7615 91.744 91.2802H96.038C96.1647 92.0909 96.228 92.9142 96.228 93.7502ZM75.328 87.4769V82.4989H96V87.4769H75.328ZM69.628 87.8569C68.716 87.8569 68.0067 87.6036 67.5 87.0969C66.9933 86.5903 66.74 85.8936 66.74 85.0069C66.74 84.0949 66.9933 83.3856 67.5 82.8789C68.0067 82.3723 68.716 82.1189 69.628 82.1189C70.5147 82.1189 71.2113 82.3723 71.718 82.8789C72.2247 83.3603 72.478 84.0696 72.478 85.0069C72.478 85.8936 72.2247 86.5903 71.718 87.0969C71.2113 87.6036 70.5147 87.8569 69.628 87.8569ZM96.456 67.7947C96.456 69.796 95.9873 71.6327 95.05 73.3047C94.1127 74.9767 92.8207 76.3067 91.174 77.2947C89.5273 78.2574 87.6907 78.7387 85.664 78.7387C83.6373 78.7387 81.8007 78.2574 80.154 77.2947C78.5073 76.332 77.2153 75.0147 76.278 73.3427C75.3407 71.6707 74.872 69.8214 74.872 67.7947C74.872 65.7934 75.3407 63.9694 76.278 62.3227C77.2153 60.6507 78.5073 59.3334 80.154 58.3707C81.8007 57.3827 83.6373 56.8887 85.664 56.8887C87.716 56.8887 89.5653 57.3827 91.212 58.3707C92.8587 59.3334 94.1507 60.6507 95.088 62.3227C96 63.9947 96.456 65.8187 96.456 67.7947ZM85.664 73.5707C87.4627 73.5707 88.9573 73.0387 90.148 71.9747C91.3133 70.8854 91.896 69.492 91.896 67.7947C91.896 66.7054 91.63 65.73 91.098 64.8687C90.566 64.0074 89.8313 63.336 88.894 62.8547C87.9313 62.348 86.8547 62.0947 85.664 62.0947C84.4987 62.0947 83.4473 62.348 82.51 62.8547C81.5473 63.336 80.8 64.0074 80.268 64.8687C79.7107 65.73 79.432 66.7054 79.432 67.7947C79.432 68.9094 79.7107 69.91 80.268 70.7967C80.8 71.658 81.5347 72.342 82.472 72.8487C83.4093 73.33 84.4733 73.5707 85.664 73.5707ZM75.328 53.1136V48.4396H77.874C76.9113 47.9076 76.1767 47.135 75.67 46.1216C75.138 45.083 74.872 43.905 74.872 42.5876C74.872 41.093 75.2013 39.7503 75.86 38.5596C76.5187 37.369 77.4433 36.4443 78.634 35.7856C79.8247 35.127 81.18 34.7976 82.7 34.7976H96V39.7756H83.878C82.5353 39.7756 81.4587 40.1683 80.648 40.9536C79.8373 41.7136 79.432 42.7143 79.432 43.9556C79.432 45.197 79.8373 46.2103 80.648 46.9956C81.4587 47.7556 82.5353 48.1356 83.878 48.1356H96V53.1136H75.328Z" fill="#D1D5DB" />
  <path d="M124.69 516.264V497.378H129.25V511.096H137.078V499.088H141.638V511.096H153V516.264H124.69ZM153.456 484.791C153.456 486.792 152.987 488.629 152.05 490.301C151.113 491.973 149.821 493.303 148.174 494.291C146.527 495.253 144.691 495.735 142.664 495.735C140.637 495.735 138.801 495.253 137.154 494.291C135.507 493.328 134.215 492.011 133.278 490.339C132.341 488.667 131.872 486.817 131.872 484.791C131.872 482.789 132.341 480.965 133.278 479.319C134.215 477.647 135.507 476.329 137.154 475.367C138.801 474.379 140.637 473.885 142.664 473.885C144.716 473.885 146.565 474.379 148.212 475.367C149.859 476.329 151.151 477.647 152.088 479.319C153 480.991 153.456 482.815 153.456 484.791ZM142.664 490.567C144.463 490.567 145.957 490.035 147.148 488.971C148.313 487.881 148.896 486.488 148.896 484.791C148.896 483.701 148.63 482.726 148.098 481.865C147.566 481.003 146.831 480.332 145.894 479.851C144.931 479.344 143.855 479.091 142.664 479.091C141.499 479.091 140.447 479.344 139.51 479.851C138.547 480.332 137.8 481.003 137.268 481.865C136.711 482.726 136.432 483.701 136.432 484.791C136.432 485.905 136.711 486.906 137.268 487.793C137.8 488.654 138.535 489.338 139.472 489.845C140.409 490.326 141.473 490.567 142.664 490.567ZM132.328 470.11V465.436H135.216C134.101 464.929 133.303 464.207 132.822 463.27C132.341 462.332 132.1 461.192 132.1 459.85V458.634H136.508V460.42C136.508 461.838 136.951 462.978 137.838 463.84C138.725 464.701 139.941 465.132 141.486 465.132H153V470.11H132.328ZM153.456 435.425C153.456 438.085 152.823 440.492 151.556 442.645C150.289 444.798 148.541 446.496 146.312 447.737C144.083 448.953 141.587 449.561 138.826 449.561C136.065 449.561 133.569 448.953 131.34 447.737C129.111 446.496 127.375 444.811 126.134 442.683C124.867 440.53 124.234 438.11 124.234 435.425C124.234 433.474 124.576 431.688 125.26 430.067C125.919 428.446 126.818 427.078 127.958 425.963C129.073 424.823 130.314 424 131.682 423.493L133.848 428.129C132.379 428.686 131.201 429.611 130.314 430.903C129.402 432.195 128.946 433.702 128.946 435.425C128.946 437.173 129.364 438.731 130.2 440.099C131.011 441.467 132.163 442.531 133.658 443.291C135.153 444.026 136.875 444.393 138.826 444.393C140.777 444.393 142.512 444.026 144.032 443.291C145.527 442.531 146.692 441.467 147.528 440.099C148.339 438.731 148.744 437.173 148.744 435.425C148.744 433.702 148.301 432.195 147.414 430.903C146.502 429.611 145.311 428.686 143.842 428.129L146.008 423.493C147.376 424 148.63 424.823 149.77 425.963C150.885 427.078 151.784 428.446 152.468 430.067C153.127 431.688 153.456 433.474 153.456 435.425ZM132.328 419.715V415.041H135.216C134.101 414.535 133.303 413.813 132.822 412.875C132.341 411.938 132.1 410.798 132.1 409.455V408.239H136.508V410.025C136.508 411.444 136.951 412.584 137.838 413.445C138.725 414.307 139.941 414.737 141.486 414.737H153V419.715H132.328ZM153.456 395.698C153.456 397.776 152.975 399.625 152.012 401.246C151.049 402.842 149.745 404.096 148.098 405.008C146.451 405.895 144.627 406.338 142.626 406.338C140.599 406.338 138.775 405.895 137.154 405.008C135.507 404.096 134.215 402.868 133.278 401.322C132.341 399.752 131.872 398.004 131.872 396.078C131.872 394.001 132.328 392.202 133.24 390.682C134.127 389.162 135.343 388.01 136.888 387.224C138.433 386.414 140.131 386.008 141.98 386.008C142.841 386.008 143.538 386.097 144.07 386.274V401.17C145.59 401.018 146.806 400.436 147.718 399.422C148.63 398.409 149.086 397.155 149.086 395.66C149.086 394.546 148.858 393.596 148.402 392.81C147.921 392 147.262 391.354 146.426 390.872L148.402 386.844C149.922 387.478 151.151 388.592 152.088 390.188C153 391.784 153.456 393.621 153.456 395.698ZM140.27 391.328C139.003 391.455 137.977 391.949 137.192 392.81C136.381 393.672 135.976 394.761 135.976 396.078C135.976 397.345 136.356 398.422 137.116 399.308C137.851 400.195 138.902 400.778 140.27 401.056V391.328ZM153.456 376.076C153.456 378.255 152.924 379.99 151.86 381.282C150.796 382.549 149.352 383.182 147.528 383.182C145.78 383.182 144.336 382.587 143.196 381.396C142.056 380.205 141.296 378.419 140.916 376.038L139.928 369.882H139.244C138.332 369.882 137.585 370.237 137.002 370.946C136.419 371.63 136.128 372.542 136.128 373.682C136.128 374.746 136.419 375.696 137.002 376.532C137.559 377.343 138.307 377.938 139.244 378.318L137.268 382.384C135.647 381.776 134.342 380.661 133.354 379.04C132.366 377.419 131.872 375.569 131.872 373.492C131.872 371.82 132.189 370.338 132.822 369.046C133.43 367.729 134.304 366.715 135.444 366.006C136.559 365.271 137.825 364.904 139.244 364.904H153V369.616H150.796C152.569 371.237 153.456 373.391 153.456 376.076ZM147.338 378.014C148.047 378.014 148.617 377.748 149.048 377.216C149.453 376.684 149.656 376 149.656 375.164C149.656 373.619 149.175 372.352 148.212 371.364C147.224 370.376 146.008 369.882 144.564 369.882H143.728L144.602 375.088C144.805 376.076 145.134 376.811 145.59 377.292C146.021 377.773 146.603 378.014 147.338 378.014ZM153.228 351.25C153.228 353.581 152.595 355.392 151.328 356.684C150.036 357.951 148.225 358.584 145.894 358.584H136.774V362.156H132.328V361.776C132.328 360.763 132.062 359.978 131.53 359.42C130.998 358.863 130.225 358.584 129.212 358.584H127.616V353.606H132.328V348.856H136.774V353.606H145.628C147.781 353.606 148.858 352.441 148.858 350.11C148.858 349.705 148.82 349.262 148.744 348.78H153.038C153.165 349.591 153.228 350.414 153.228 351.25ZM132.328 344.977V339.999H153V344.977H132.328ZM126.628 345.357C125.716 345.357 125.007 345.104 124.5 344.597C123.993 344.09 123.74 343.394 123.74 342.507C123.74 341.595 123.993 340.886 124.5 340.379C125.007 339.872 125.716 339.619 126.628 339.619C127.515 339.619 128.211 339.872 128.718 340.379C129.225 340.86 129.478 341.57 129.478 342.507C129.478 343.394 129.225 344.09 128.718 344.597C128.211 345.104 127.515 345.357 126.628 345.357ZM132.328 337.303V331.869L145.818 326.967L132.328 322.065V316.631L153 324.763V329.171L132.328 337.303ZM153.456 304.446C153.456 306.524 152.975 308.373 152.012 309.994C151.049 311.59 149.745 312.844 148.098 313.756C146.451 314.643 144.627 315.086 142.626 315.086C140.599 315.086 138.775 314.643 137.154 313.756C135.507 312.844 134.215 311.616 133.278 310.07C132.341 308.5 131.872 306.752 131.872 304.826C131.872 302.749 132.328 300.95 133.24 299.43C134.127 297.91 135.343 296.758 136.888 295.972C138.433 295.162 140.131 294.756 141.98 294.756C142.841 294.756 143.538 294.845 144.07 295.022V309.918C145.59 309.766 146.806 309.184 147.718 308.17C148.63 307.157 149.086 305.903 149.086 304.408C149.086 303.294 148.858 302.344 148.402 301.558C147.921 300.748 147.262 300.102 146.426 299.62L148.402 295.592C149.922 296.226 151.151 297.34 152.088 298.936C153 300.532 153.456 302.369 153.456 304.446ZM140.27 300.076C139.003 300.203 137.977 300.697 137.192 301.558C136.381 302.42 135.976 303.509 135.976 304.826C135.976 306.093 136.356 307.17 137.116 308.056C137.851 308.943 138.902 309.526 140.27 309.804V300.076ZM124.69 283.811V278.871L137.458 269.447L124.69 260.251V255.311H153V260.517H133.772L145.4 269.257V269.865L133.392 278.643H153V283.811H124.69ZM132.328 250.311V245.333H153V250.311H132.328ZM126.628 250.691C125.716 250.691 125.007 250.438 124.5 249.931C123.993 249.424 123.74 248.728 123.74 247.841C123.74 246.929 123.993 246.22 124.5 245.713C125.007 245.206 125.716 244.953 126.628 244.953C127.515 244.953 128.211 245.206 128.718 245.713C129.225 246.194 129.478 246.904 129.478 247.841C129.478 248.728 129.225 249.424 128.718 249.931C128.211 250.438 127.515 250.691 126.628 250.691ZM132.328 240.737V236.063H134.874C133.911 235.531 133.177 234.758 132.67 233.745C132.138 232.706 131.872 231.528 131.872 230.211C131.872 228.716 132.201 227.373 132.86 226.183C133.519 224.992 134.443 224.067 135.634 223.409C136.825 222.75 138.18 222.421 139.7 222.421H153V227.399H140.878C139.535 227.399 138.459 227.791 137.648 228.577C136.837 229.337 136.432 230.337 136.432 231.579C136.432 232.82 136.837 233.833 137.648 234.619C138.459 235.379 139.535 235.759 140.878 235.759H153V240.737H132.328ZM153.456 208.597C153.456 210.573 152.987 212.359 152.05 213.955C151.087 215.526 149.783 216.767 148.136 217.679C146.489 218.591 144.665 219.047 142.664 219.047C140.663 219.047 138.839 218.591 137.192 217.679C135.545 216.767 134.253 215.513 133.316 213.917C132.353 212.321 131.872 210.561 131.872 208.635C131.872 207.318 132.1 206.115 132.556 205.025C132.987 203.936 133.607 203.024 134.418 202.289H124.234V197.311H153V202.023H150.72C151.607 202.783 152.291 203.733 152.772 204.873C153.228 206.013 153.456 207.255 153.456 208.597ZM142.664 213.879C143.855 213.879 144.931 213.639 145.894 213.157C146.831 212.651 147.566 211.954 148.098 211.067C148.63 210.181 148.896 209.18 148.896 208.065C148.896 206.951 148.63 205.963 148.098 205.101C147.566 204.215 146.831 203.531 145.894 203.049C144.931 202.543 143.855 202.289 142.664 202.289C141.473 202.289 140.409 202.543 139.472 203.049C138.509 203.531 137.762 204.215 137.23 205.101C136.698 205.988 136.432 206.976 136.432 208.065C136.432 209.18 136.711 210.181 137.268 211.067C137.8 211.954 138.547 212.651 139.51 213.157C140.447 213.639 141.499 213.879 142.664 213.879ZM153.418 184.928C153.418 187.005 152.924 188.842 151.936 190.438C150.948 192.009 149.593 193.123 147.87 193.782L145.97 190.096C147.085 189.539 147.959 188.804 148.592 187.892C149.2 186.955 149.504 185.929 149.504 184.814C149.504 183.851 149.314 183.104 148.934 182.572C148.529 182.015 147.984 181.736 147.3 181.736C146.717 181.736 146.236 181.964 145.856 182.42C145.451 182.876 145.185 183.471 145.058 184.206L144.488 187.588C144.032 189.336 143.259 190.691 142.17 191.654C141.055 192.591 139.751 193.06 138.256 193.06C137.015 193.06 135.913 192.731 134.95 192.072C133.962 191.413 133.202 190.501 132.67 189.336C132.138 188.145 131.872 186.803 131.872 185.308C131.872 183.408 132.328 181.736 133.24 180.292C134.127 178.848 135.368 177.797 136.964 177.138L138.864 180.824C137.977 181.229 137.268 181.85 136.736 182.686C136.204 183.522 135.938 184.447 135.938 185.46C135.938 186.296 136.128 186.967 136.508 187.474C136.888 187.955 137.382 188.196 137.99 188.196C139.105 188.196 139.852 187.36 140.232 185.688L140.84 182.382C141.321 180.634 142.107 179.279 143.196 178.316C144.285 177.353 145.577 176.872 147.072 176.872C148.313 176.872 149.415 177.214 150.378 177.898C151.341 178.557 152.088 179.494 152.62 180.71C153.152 181.926 153.418 183.332 153.418 184.928ZM140.498 165.381V149.231H144.868V165.381H140.498Z" fill="#D1D5DB" />
  <path d="M153.456 126.342C153.456 128.571 153.038 130.509 152.202 132.156C151.366 133.777 150.315 135.044 149.048 135.956C147.756 136.868 146.413 137.45 145.02 137.704L143.728 132.84C145.273 132.46 146.477 131.7 147.338 130.56C148.199 129.42 148.63 127.988 148.63 126.266C148.63 124.948 148.301 123.884 147.642 123.074C146.983 122.238 146.198 121.82 145.286 121.82C144.45 121.82 143.728 122.124 143.12 122.732C142.487 123.314 142.069 124.112 141.866 125.126L141.03 129.382C140.599 131.636 139.624 133.41 138.104 134.702C136.584 135.994 134.735 136.64 132.556 136.64C131.036 136.64 129.643 136.209 128.376 135.348C127.084 134.461 126.071 133.296 125.336 131.852C124.601 130.382 124.234 128.824 124.234 127.178C124.234 125.075 124.589 123.289 125.298 121.82C126.007 120.35 126.907 119.21 127.996 118.4C129.06 117.564 130.187 117.006 131.378 116.728L132.898 121.554C131.53 122.086 130.555 122.808 129.972 123.72C129.364 124.632 129.06 125.784 129.06 127.178C129.06 127.963 129.225 128.672 129.554 129.306C129.883 129.914 130.314 130.395 130.846 130.75C131.353 131.079 131.872 131.244 132.404 131.244C133.24 131.244 133.975 130.965 134.608 130.408C135.216 129.85 135.609 129.078 135.786 128.09L136.66 124.062C137.192 121.604 138.205 119.704 139.7 118.362C141.169 117.019 142.93 116.348 144.982 116.348C146.451 116.348 147.832 116.753 149.124 117.564C150.416 118.374 151.467 119.54 152.278 121.06C153.063 122.554 153.456 124.315 153.456 126.342ZM124.234 112.264V107.286H134.38C133.569 106.703 132.949 105.931 132.518 104.968C132.087 104.005 131.872 102.929 131.872 101.738C131.872 100.243 132.201 98.9007 132.86 97.71C133.519 96.5194 134.443 95.5947 135.634 94.936C136.825 94.2774 138.18 93.948 139.7 93.948H153V98.926H140.878C139.535 98.926 138.459 99.3187 137.648 100.104C136.837 100.864 136.432 101.865 136.432 103.106C136.432 104.322 136.837 105.323 137.648 106.108C138.459 106.893 139.535 107.286 140.878 107.286H153V112.264H124.234ZM153.456 83.4686C153.456 85.6473 152.924 87.3826 151.86 88.6746C150.796 89.9413 149.352 90.5746 147.528 90.5746C145.78 90.5746 144.336 89.9793 143.196 88.7886C142.056 87.598 141.296 85.812 140.916 83.4306L139.928 77.2746H139.244C138.332 77.2746 137.585 77.6293 137.002 78.3386C136.419 79.0226 136.128 79.9346 136.128 81.0746C136.128 82.1386 136.419 83.0886 137.002 83.9246C137.559 84.7353 138.307 85.3306 139.244 85.7106L137.268 89.7766C135.647 89.1686 134.342 88.054 133.354 86.4326C132.366 84.8113 131.872 82.962 131.872 80.8846C131.872 79.2126 132.189 77.7306 132.822 76.4386C133.43 75.1213 134.304 74.108 135.444 73.3986C136.559 72.664 137.825 72.2966 139.244 72.2966H153V77.0086H150.796C152.569 78.63 153.456 80.7833 153.456 83.4686ZM147.338 85.4066C148.047 85.4066 148.617 85.1406 149.048 84.6086C149.453 84.0766 149.656 83.3926 149.656 82.5566C149.656 81.0113 149.175 79.7446 148.212 78.7566C147.224 77.7686 146.008 77.2746 144.564 77.2746H143.728L144.602 82.4806C144.805 83.4686 145.134 84.2033 145.59 84.6846C146.021 85.166 146.603 85.4066 147.338 85.4066ZM132.328 67.6957V63.0217H135.216C134.101 62.515 133.303 61.793 132.822 60.8557C132.341 59.9183 132.1 58.7783 132.1 57.4357V56.2197H136.508V58.0057C136.508 59.4243 136.951 60.5643 137.838 61.4257C138.725 62.287 139.941 62.7177 141.486 62.7177H153V67.6957H132.328ZM153.456 43.6788C153.456 45.7561 152.975 47.6054 152.012 49.2268C151.049 50.8228 149.745 52.0768 148.098 52.9888C146.451 53.8754 144.627 54.3188 142.626 54.3188C140.599 54.3188 138.775 53.8754 137.154 52.9888C135.507 52.0768 134.215 50.8481 133.278 49.3028C132.341 47.7321 131.872 45.9841 131.872 44.0588C131.872 41.9814 132.328 40.1828 133.24 38.6628C134.127 37.1428 135.343 35.9901 136.888 35.2048C138.433 34.3941 140.131 33.9888 141.98 33.9888C142.841 33.9888 143.538 34.0774 144.07 34.2548V49.1508C145.59 48.9988 146.806 48.4161 147.718 47.4028C148.63 46.3894 149.086 45.1354 149.086 43.6408C149.086 42.5261 148.858 41.5761 148.402 40.7908C147.921 39.9801 147.262 39.3341 146.426 38.8528L148.402 34.8248C149.922 35.4581 151.151 36.5728 152.088 38.1688C153 39.7648 153.456 41.6014 153.456 43.6788ZM140.27 39.3088C139.003 39.4354 137.977 39.9294 137.192 40.7908C136.381 41.6521 135.976 42.7414 135.976 44.0588C135.976 45.3254 136.356 46.4021 137.116 47.2888C137.851 48.1754 138.902 48.7581 140.27 49.0368V39.3088Z" fill="#9CA3AF" />
  <path d="M181.69 559.582V554.034L202.97 548.79L181.69 543.28V537.922L202.97 532.45L181.69 527.206V521.658L210 529.258V535.186L189.632 540.62L210 546.054V551.982L181.69 559.582ZM181.234 518.94V513.962H191.38C190.569 513.379 189.949 512.606 189.518 511.644C189.087 510.681 188.872 509.604 188.872 508.414C188.872 506.919 189.201 505.576 189.86 504.386C190.519 503.195 191.443 502.27 192.634 501.612C193.825 500.953 195.18 500.624 196.7 500.624H210V505.602H197.878C196.535 505.602 195.459 505.994 194.648 506.78C193.837 507.54 193.432 508.54 193.432 509.782C193.432 510.998 193.837 511.998 194.648 512.784C195.459 513.569 196.535 513.962 197.878 513.962H210V518.94H181.234ZM210.456 486.61C210.456 488.688 209.975 490.537 209.012 492.158C208.049 493.754 206.745 495.008 205.098 495.92C203.451 496.807 201.627 497.25 199.626 497.25C197.599 497.25 195.775 496.807 194.154 495.92C192.507 495.008 191.215 493.78 190.278 492.234C189.341 490.664 188.872 488.916 188.872 486.99C188.872 484.913 189.328 483.114 190.24 481.594C191.127 480.074 192.343 478.922 193.888 478.136C195.433 477.326 197.131 476.92 198.98 476.92C199.841 476.92 200.538 477.009 201.07 477.186V492.082C202.59 491.93 203.806 491.348 204.718 490.334C205.63 489.321 206.086 488.067 206.086 486.572C206.086 485.458 205.858 484.508 205.402 483.722C204.921 482.912 204.262 482.266 203.426 481.784L205.402 477.756C206.922 478.39 208.151 479.504 209.088 481.1C210 482.696 210.456 484.533 210.456 486.61ZM197.27 482.24C196.003 482.367 194.977 482.861 194.192 483.722C193.381 484.584 192.976 485.673 192.976 486.99C192.976 488.257 193.356 489.334 194.116 490.22C194.851 491.107 195.902 491.69 197.27 491.968V482.24ZM189.328 473.147V468.473H192.216C191.101 467.966 190.303 467.244 189.822 466.307C189.341 465.37 189.1 464.23 189.1 462.887V461.671H193.508V463.457C193.508 464.876 193.951 466.016 194.838 466.877C195.725 467.738 196.941 468.169 198.486 468.169H210V473.147H189.328ZM210.456 449.13C210.456 451.207 209.975 453.057 209.012 454.678C208.049 456.274 206.745 457.528 205.098 458.44C203.451 459.327 201.627 459.77 199.626 459.77C197.599 459.77 195.775 459.327 194.154 458.44C192.507 457.528 191.215 456.299 190.278 454.754C189.341 453.183 188.872 451.435 188.872 449.51C188.872 447.433 189.328 445.634 190.24 444.114C191.127 442.594 192.343 441.441 193.888 440.656C195.433 439.845 197.131 439.44 198.98 439.44C199.841 439.44 200.538 439.529 201.07 439.706V454.602C202.59 454.45 203.806 453.867 204.718 452.854C205.63 451.841 206.086 450.587 206.086 449.092C206.086 447.977 205.858 447.027 205.402 446.242C204.921 445.431 204.262 444.785 203.426 444.304L205.402 440.276C206.922 440.909 208.151 442.024 209.088 443.62C210 445.216 210.456 447.053 210.456 449.13ZM197.27 444.76C196.003 444.887 194.977 445.381 194.192 446.242C193.381 447.103 192.976 448.193 192.976 449.51C192.976 450.777 193.356 451.853 194.116 452.74C194.851 453.627 195.902 454.209 197.27 454.488V444.76ZM181.69 173.33V168.39L194.458 158.966L181.69 149.77V144.83H210V150.036H190.772L202.4 158.776V159.384L190.392 168.162H210V173.33H181.69ZM210.456 133.56C210.456 135.739 209.924 137.474 208.86 138.766C207.796 140.033 206.352 140.666 204.528 140.666C202.78 140.666 201.336 140.071 200.196 138.88C199.056 137.69 198.296 135.904 197.916 133.522L196.928 127.366H196.244C195.332 127.366 194.585 127.721 194.002 128.43C193.419 129.114 193.128 130.026 193.128 131.166C193.128 132.23 193.419 133.18 194.002 134.016C194.559 134.827 195.307 135.422 196.244 135.802L194.268 139.868C192.647 139.26 191.342 138.146 190.354 136.524C189.366 134.903 188.872 133.054 188.872 130.976C188.872 129.304 189.189 127.822 189.822 126.53C190.43 125.213 191.304 124.2 192.444 123.49C193.559 122.756 194.825 122.388 196.244 122.388H210V127.1H207.796C209.569 128.722 210.456 130.875 210.456 133.56ZM204.338 135.498C205.047 135.498 205.617 135.232 206.048 134.7C206.453 134.168 206.656 133.484 206.656 132.648C206.656 131.103 206.175 129.836 205.212 128.848C204.224 127.86 203.008 127.366 201.564 127.366H200.728L201.602 132.572C201.805 133.56 202.134 134.295 202.59 134.776C203.021 135.258 203.603 135.498 204.338 135.498ZM210.228 108.735C210.228 111.065 209.595 112.877 208.328 114.169C207.036 115.435 205.225 116.069 202.894 116.069H193.774V119.641H189.328V119.261C189.328 118.247 189.062 117.462 188.53 116.905C187.998 116.347 187.225 116.069 186.212 116.069H184.616V111.091H189.328V106.341H193.774V111.091H202.628C204.781 111.091 205.858 109.925 205.858 107.595C205.858 107.189 205.82 106.746 205.744 106.265H210.038C210.165 107.075 210.228 107.899 210.228 108.735ZM210.228 93.0373C210.228 95.368 209.595 97.1793 208.328 98.4713C207.036 99.738 205.225 100.371 202.894 100.371H193.774V103.943H189.328V103.563C189.328 102.55 189.062 101.765 188.53 101.207C187.998 100.65 187.225 100.371 186.212 100.371H184.616V95.3933H189.328V90.6433H193.774V95.3933H202.628C204.781 95.3933 205.858 94.228 205.858 91.8973C205.858 91.492 205.82 91.0486 205.744 90.5673H210.038C210.165 91.378 210.228 92.2013 210.228 93.0373ZM210.456 77.1456C210.456 79.2229 209.975 81.0722 209.012 82.6936C208.049 84.2896 206.745 85.5436 205.098 86.4556C203.451 87.3422 201.627 87.7856 199.626 87.7856C197.599 87.7856 195.775 87.3422 194.154 86.4556C192.507 85.5436 191.215 84.3149 190.278 82.7696C189.341 81.1989 188.872 79.4509 188.872 77.5256C188.872 75.4482 189.328 73.6496 190.24 72.1296C191.127 70.6096 192.343 69.4569 193.888 68.6716C195.433 67.8609 197.131 67.4556 198.98 67.4556C199.841 67.4556 200.538 67.5442 201.07 67.7216V82.6176C202.59 82.4656 203.806 81.8829 204.718 80.8696C205.63 79.8562 206.086 78.6022 206.086 77.1076C206.086 75.9929 205.858 75.0429 205.402 74.2576C204.921 73.4469 204.262 72.8009 203.426 72.3196L205.402 68.2916C206.922 68.9249 208.151 70.0396 209.088 71.6356C210 73.2316 210.456 75.0682 210.456 77.1456ZM197.27 72.7756C196.003 72.9022 194.977 73.3962 194.192 74.2576C193.381 75.1189 192.976 76.2082 192.976 77.5256C192.976 78.7922 193.356 79.8689 194.116 80.7556C194.851 81.6422 195.902 82.2249 197.27 82.5036V72.7756ZM189.328 63.682V59.008H192.216C191.101 58.5013 190.303 57.7793 189.822 56.842C189.341 55.9047 189.1 54.7647 189.1 53.422V52.206H193.508V53.992C193.508 55.4107 193.951 56.5507 194.838 57.412C195.725 58.2733 196.941 58.704 198.486 58.704H210V63.682H189.328ZM210.418 41.7171C210.418 43.7944 209.924 45.6311 208.936 47.2271C207.948 48.7978 206.593 49.9124 204.87 50.5711L202.97 46.8851C204.085 46.3278 204.959 45.5931 205.592 44.6811C206.2 43.7438 206.504 42.7178 206.504 41.6031C206.504 40.6404 206.314 39.8931 205.934 39.3611C205.529 38.8038 204.984 38.5251 204.3 38.5251C203.717 38.5251 203.236 38.7531 202.856 39.2091C202.451 39.6651 202.185 40.2604 202.058 40.9951L201.488 44.3771C201.032 46.1251 200.259 47.4804 199.17 48.4431C198.055 49.3804 196.751 49.8491 195.256 49.8491C194.015 49.8491 192.913 49.5198 191.95 48.8611C190.962 48.2024 190.202 47.2904 189.67 46.1251C189.138 44.9344 188.872 43.5918 188.872 42.0971C188.872 40.1971 189.328 38.5251 190.24 37.0811C191.127 35.6371 192.368 34.5858 193.964 33.9271L195.864 37.6131C194.977 38.0184 194.268 38.6391 193.736 39.4751C193.204 40.3111 192.938 41.2358 192.938 42.2491C192.938 43.0851 193.128 43.7564 193.508 44.2631C193.888 44.7444 194.382 44.9851 194.99 44.9851C196.105 44.9851 196.852 44.1491 197.232 42.4771L197.84 39.1711C198.321 37.4231 199.107 36.0678 200.196 35.1051C201.285 34.1424 202.577 33.6611 204.072 33.6611C205.313 33.6611 206.415 34.0031 207.378 34.6871C208.341 35.3458 209.088 36.2831 209.62 37.4991C210.152 38.7151 210.418 40.1211 210.418 41.7171Z" fill="#D1D5DB" />
  <path d="M210.456 415.194C210.456 417.854 209.823 420.261 208.556 422.414C207.289 424.568 205.541 426.265 203.312 427.506C201.083 428.722 198.587 429.33 195.826 429.33C193.065 429.33 190.569 428.722 188.34 427.506C186.111 426.265 184.375 424.58 183.134 422.452C181.867 420.299 181.234 417.88 181.234 415.194C181.234 413.244 181.576 411.458 182.26 409.836C182.919 408.215 183.818 406.847 184.958 405.732C186.073 404.592 187.314 403.769 188.682 403.262L190.848 407.898C189.379 408.456 188.201 409.38 187.314 410.672C186.402 411.964 185.946 413.472 185.946 415.194C185.946 416.942 186.364 418.5 187.2 419.868C188.011 421.236 189.163 422.3 190.658 423.06C192.153 423.795 193.875 424.162 195.826 424.162C197.777 424.162 199.512 423.795 201.032 423.06C202.527 422.3 203.692 421.236 204.528 419.868C205.339 418.5 205.744 416.942 205.744 415.194C205.744 413.472 205.301 411.964 204.414 410.672C203.502 409.38 202.311 408.456 200.842 407.898L203.008 403.262C204.376 403.769 205.63 404.592 206.77 405.732C207.885 406.847 208.784 408.215 209.468 409.836C210.127 411.458 210.456 413.244 210.456 415.194ZM210.456 389.748C210.456 391.749 209.987 393.586 209.05 395.258C208.113 396.93 206.821 398.26 205.174 399.248C203.527 400.21 201.691 400.692 199.664 400.692C197.637 400.692 195.801 400.21 194.154 399.248C192.507 398.285 191.215 396.968 190.278 395.296C189.341 393.624 188.872 391.774 188.872 389.748C188.872 387.746 189.341 385.922 190.278 384.276C191.215 382.604 192.507 381.286 194.154 380.324C195.801 379.336 197.637 378.842 199.664 378.842C201.716 378.842 203.565 379.336 205.212 380.324C206.859 381.286 208.151 382.604 209.088 384.276C210 385.948 210.456 387.772 210.456 389.748ZM199.664 395.524C201.463 395.524 202.957 394.992 204.148 393.928C205.313 392.838 205.896 391.445 205.896 389.748C205.896 388.658 205.63 387.683 205.098 386.822C204.566 385.96 203.831 385.289 202.894 384.808C201.931 384.301 200.855 384.048 199.664 384.048C198.499 384.048 197.447 384.301 196.51 384.808C195.547 385.289 194.8 385.96 194.268 386.822C193.711 387.683 193.432 388.658 193.432 389.748C193.432 390.862 193.711 391.863 194.268 392.75C194.8 393.611 195.535 394.295 196.472 394.802C197.409 395.283 198.473 395.524 199.664 395.524ZM189.328 375.067V370.393H191.874C190.911 369.861 190.177 369.088 189.67 368.075C189.138 367.036 188.872 365.858 188.872 364.541C188.872 363.046 189.201 361.703 189.86 360.513C190.519 359.322 191.443 358.397 192.634 357.739C193.825 357.08 195.18 356.751 196.7 356.751H210V361.729H197.878C196.535 361.729 195.459 362.121 194.648 362.907C193.837 363.667 193.432 364.667 193.432 365.909C193.432 367.15 193.837 368.163 194.648 368.949C195.459 369.709 196.535 370.089 197.878 370.089H210V375.067H189.328ZM189.328 354.812V349.378L202.818 344.476L189.328 339.574V334.14L210 342.272V346.68L189.328 354.812ZM210.456 321.956C210.456 324.033 209.975 325.883 209.012 327.504C208.049 329.1 206.745 330.354 205.098 331.266C203.451 332.153 201.627 332.596 199.626 332.596C197.599 332.596 195.775 332.153 194.154 331.266C192.507 330.354 191.215 329.125 190.278 327.58C189.341 326.009 188.872 324.261 188.872 322.336C188.872 320.259 189.328 318.46 190.24 316.94C191.127 315.42 192.343 314.267 193.888 313.482C195.433 312.671 197.131 312.266 198.98 312.266C199.841 312.266 200.538 312.355 201.07 312.532V327.428C202.59 327.276 203.806 326.693 204.718 325.68C205.63 324.667 206.086 323.413 206.086 321.918C206.086 320.803 205.858 319.853 205.402 319.068C204.921 318.257 204.262 317.611 203.426 317.13L205.402 313.102C206.922 313.735 208.151 314.85 209.088 316.446C210 318.042 210.456 319.879 210.456 321.956ZM197.27 317.586C196.003 317.713 194.977 318.207 194.192 319.068C193.381 319.929 192.976 321.019 192.976 322.336C192.976 323.603 193.356 324.679 194.116 325.566C194.851 326.453 195.902 327.035 197.27 327.314V317.586ZM189.328 308.493V303.819H192.216C191.101 303.312 190.303 302.59 189.822 301.653C189.341 300.715 189.1 299.575 189.1 298.233V297.017H193.508V298.803C193.508 300.221 193.951 301.361 194.838 302.223C195.725 303.084 196.941 303.515 198.486 303.515H210V308.493H189.328ZM210.418 286.528C210.418 288.605 209.924 290.442 208.936 292.038C207.948 293.608 206.593 294.723 204.87 295.382L202.97 291.696C204.085 291.138 204.959 290.404 205.592 289.492C206.2 288.554 206.504 287.528 206.504 286.414C206.504 285.451 206.314 284.704 205.934 284.172C205.529 283.614 204.984 283.336 204.3 283.336C203.717 283.336 203.236 283.564 202.856 284.02C202.451 284.476 202.185 285.071 202.058 285.806L201.488 289.188C201.032 290.936 200.259 292.291 199.17 293.254C198.055 294.191 196.751 294.66 195.256 294.66C194.015 294.66 192.913 294.33 191.95 293.672C190.962 293.013 190.202 292.101 189.67 290.936C189.138 289.745 188.872 288.402 188.872 286.908C188.872 285.008 189.328 283.336 190.24 281.892C191.127 280.448 192.368 279.396 193.964 278.738L195.864 282.424C194.977 282.829 194.268 283.45 193.736 284.286C193.204 285.122 192.938 286.046 192.938 287.06C192.938 287.896 193.128 288.567 193.508 289.074C193.888 289.555 194.382 289.796 194.99 289.796C196.105 289.796 196.852 288.96 197.232 287.288L197.84 283.982C198.321 282.234 199.107 280.878 200.196 279.916C201.285 278.953 202.577 278.472 204.072 278.472C205.313 278.472 206.415 278.814 207.378 279.498C208.341 280.156 209.088 281.094 209.62 282.31C210.152 283.526 210.418 284.932 210.418 286.528ZM210.456 268.49C210.456 270.669 209.924 272.404 208.86 273.696C207.796 274.963 206.352 275.596 204.528 275.596C202.78 275.596 201.336 275.001 200.196 273.81C199.056 272.619 198.296 270.833 197.916 268.452L196.928 262.296H196.244C195.332 262.296 194.585 262.651 194.002 263.36C193.419 264.044 193.128 264.956 193.128 266.096C193.128 267.16 193.419 268.11 194.002 268.946C194.559 269.757 195.307 270.352 196.244 270.732L194.268 274.798C192.647 274.19 191.342 273.075 190.354 271.454C189.366 269.833 188.872 267.983 188.872 265.906C188.872 264.234 189.189 262.752 189.822 261.46C190.43 260.143 191.304 259.129 192.444 258.42C193.559 257.685 194.825 257.318 196.244 257.318H210V262.03H207.796C209.569 263.651 210.456 265.805 210.456 268.49ZM204.338 270.428C205.047 270.428 205.617 270.162 206.048 269.63C206.453 269.098 206.656 268.414 206.656 267.578C206.656 266.033 206.175 264.766 205.212 263.778C204.224 262.79 203.008 262.296 201.564 262.296H200.728L201.602 267.502C201.805 268.49 202.134 269.225 202.59 269.706C203.021 270.187 203.603 270.428 204.338 270.428ZM210.228 243.664C210.228 245.995 209.595 247.806 208.328 249.098C207.036 250.365 205.225 250.998 202.894 250.998H193.774V254.57H189.328V254.19C189.328 253.177 189.062 252.392 188.53 251.834C187.998 251.277 187.225 250.998 186.212 250.998H184.616V246.02H189.328V241.27H193.774V246.02H202.628C204.781 246.02 205.858 244.855 205.858 242.524C205.858 242.119 205.82 241.676 205.744 241.194H210.038C210.165 242.005 210.228 242.828 210.228 243.664ZM189.328 237.391V232.413H210V237.391H189.328ZM183.628 237.771C182.716 237.771 182.007 237.518 181.5 237.011C180.993 236.504 180.74 235.808 180.74 234.921C180.74 234.009 180.993 233.3 181.5 232.793C182.007 232.286 182.716 232.033 183.628 232.033C184.515 232.033 185.211 232.286 185.718 232.793C186.225 233.274 186.478 233.984 186.478 234.921C186.478 235.808 186.225 236.504 185.718 237.011C185.211 237.518 184.515 237.771 183.628 237.771ZM210.456 217.709C210.456 219.71 209.987 221.547 209.05 223.219C208.113 224.891 206.821 226.221 205.174 227.209C203.527 228.171 201.691 228.653 199.664 228.653C197.637 228.653 195.801 228.171 194.154 227.209C192.507 226.246 191.215 224.929 190.278 223.257C189.341 221.585 188.872 219.735 188.872 217.709C188.872 215.707 189.341 213.883 190.278 212.237C191.215 210.565 192.507 209.247 194.154 208.285C195.801 207.297 197.637 206.803 199.664 206.803C201.716 206.803 203.565 207.297 205.212 208.285C206.859 209.247 208.151 210.565 209.088 212.237C210 213.909 210.456 215.733 210.456 217.709ZM199.664 223.485C201.463 223.485 202.957 222.953 204.148 221.889C205.313 220.799 205.896 219.406 205.896 217.709C205.896 216.619 205.63 215.644 205.098 214.783C204.566 213.921 203.831 213.25 202.894 212.769C201.931 212.262 200.855 212.009 199.664 212.009C198.499 212.009 197.447 212.262 196.51 212.769C195.547 213.25 194.8 213.921 194.268 214.783C193.711 215.644 193.432 216.619 193.432 217.709C193.432 218.823 193.711 219.824 194.268 220.711C194.8 221.572 195.535 222.256 196.472 222.763C197.409 223.244 198.473 223.485 199.664 223.485ZM189.328 203.028V198.354H191.874C190.911 197.822 190.177 197.049 189.67 196.036C189.138 194.997 188.872 193.819 188.872 192.502C188.872 191.007 189.201 189.664 189.86 188.474C190.519 187.283 191.443 186.358 192.634 185.7C193.825 185.041 195.18 184.712 196.7 184.712H210V189.69H197.878C196.535 189.69 195.459 190.082 194.648 190.868C193.837 191.628 193.432 192.628 193.432 193.87C193.432 195.111 193.837 196.124 194.648 196.91C195.459 197.67 196.535 198.05 197.878 198.05H210V203.028H189.328Z" fill="#9CA3AF" />
  <rect width="285" height="603" fill="url(#paint0_radial)" />
  <defs>
    <radialGradient id="paint0_radial" cx="0" cy="0" r="1" gradientUnits="userSpaceOnUse" gradientTransform="translate(142.5 301.5) rotate(90) scale(301.5 142.5)">
      <stop stop-color="white" stop-opacity="0" />
      <stop offset="1" stop-color="#F3F4F6" />
    </radialGradient>
  </defs>
</svg>
  