<svg width="12" height="13" viewBox="0 0 12 13" fill="none" xmlns="http://www.w3.org/2000/svg">
  <path d="M5.0586 9.49329H1.44153" stroke="white" stroke-width="0.863932" stroke-linecap="round" stroke-linejoin="round" />
  <path fill-rule="evenodd" clip-rule="evenodd" d="M10.559 9.49335C10.559 10.2886 9.91426 10.9333 9.11896 10.9333C8.32366 10.9333 7.67896 10.2886 7.67896 9.49335C7.67896 8.69745 8.32366 8.05334 9.11896 8.05334C9.91426 8.05334 10.559 8.69745 10.559 9.49335Z" stroke="white" stroke-width="0.863932" stroke-linecap="round" stroke-linejoin="round" />
  <path d="M6.94135 3.6311H10.559" stroke="white" stroke-width="0.863932" stroke-linecap="round" stroke-linejoin="round" />
  <path fill-rule="evenodd" clip-rule="evenodd" d="M1.44128 3.63104C1.44128 4.42693 2.08599 5.07104 2.88128 5.07104C3.67658 5.07104 4.32128 4.42693 4.32128 3.63104C4.32128 2.83575 3.67658 2.19104 2.88128 2.19104C2.08599 2.19104 1.44128 2.83575 1.44128 3.63104Z" stroke="white" stroke-width="0.863932" stroke-linecap="round" stroke-linejoin="round" />
</svg>
